<?xml version="1.0" encoding="UTF-8"?>
<svg version="1.1" xmlns="http://www.w3.org/2000/svg" width="1536" height="1024">
<path d="M0 0 C506.88 0 1013.76 0 1536 0 C1536 337.92 1536 675.84 1536 1024 C1029.12 1024 522.24 1024 0 1024 C0 686.08 0 348.16 0 0 Z " fill="#FDFDFD" transform="translate(0,0)"/>
<path d="M0 0 C0.33 0 0.66 0 1 0 C1.41850946 11.6601386 1.62731119 22.05022402 -3 33 C-3.33902344 33.83144531 -3.67804687 34.66289062 -4.02734375 35.51953125 C-9.31910702 47.17647597 -17.70281191 56.96402052 -26.44311523 66.15551758 C-30.30842987 70.22101166 -33.88396824 74.3206349 -37 79 C-37.40863281 79.5671875 -37.81726563 80.134375 -38.23828125 80.71875 C-41.301757 85.35080956 -41.98650476 89.62095298 -41 95 C-39.75 97.75 -39.75 97.75 -37 99 C-31.03614838 100.24048114 -26.41165669 98.82271199 -21.32421875 95.6796875 C-10.9332167 88.17022384 -2.98715927 78.85766144 3.98071289 68.21582031 C4.93896976 66.77726666 5.96425392 65.38380739 7 64 C7.66 64 8.32 64 9 64 C13.67407453 80.90488178 8.65200162 101.06221258 0.375 115.9375 C-5.42702315 125.14318525 -12.50986876 131.84084763 -21.25 138.125 C-29.6839781 144.20539098 -29.6839781 144.20539098 -35 153 C-35.67174175 156.79767901 -35.67174175 156.79767901 -35 160 C-32.68179828 162.31820172 -32.05438745 162.42022589 -28.875 162.625 C-18.7071887 162.44765445 -7.9474616 155.40862233 -0.3828125 149.03125 C1 148 1 148 3 148 C5.47572406 152.95144811 4.73593262 160.57916302 4 166 C1.55337173 172.86803507 -3.12720716 177.8360936 -9 182 C-9.90234375 182.65355469 -10.8046875 183.30710937 -11.734375 183.98046875 C-15.32110108 186.19857567 -18.78761337 187.56439103 -22.75 188.9375 C-37.25987867 193.81846857 -37.25987867 193.81846857 -47 205 C-47.2275015 206.87056791 -47.40962811 208.74685958 -47.5625 210.625 C-47.64628906 211.62789062 -47.73007812 212.63078125 -47.81640625 213.6640625 C-47.87699219 214.43492187 -47.93757812 215.20578125 -48 216 C-47.29359375 216.06316406 -46.5871875 216.12632812 -45.859375 216.19140625 C-25.04642562 218.67536378 -5.15503476 227.87403426 11 241 C11.52980469 241.41765625 12.05960938 241.8353125 12.60546875 242.265625 C36.74367653 261.30098126 53.74287001 289.47233687 57.58203125 320.23046875 C61.33288569 357.60391885 50.50405935 389.5900716 26.9453125 418.5234375 C23.54366496 422.54613273 23.54366496 422.54613273 22 424 C21.34 424 20.68 424 20 424 C20.49983398 424.75676025 20.49983398 424.75676025 21.00976562 425.52880859 C22.51124121 427.80779654 24.00568792 430.0913093 25.5 432.375 C26.28697266 433.56609375 26.28697266 433.56609375 27.08984375 434.78125 C27.58613281 435.54179688 28.08242187 436.30234375 28.59375 437.0859375 C29.05458984 437.7876709 29.51542969 438.4894043 29.99023438 439.21240234 C31 441 31 441 31 443 C32.03125 442.855625 33.0625 442.71125 34.125 442.5625 C38 443 38 443 40.9375 445.625 C43.96585863 449.60421529 46.34410179 453.96614117 48.76635742 458.33178711 C51.23650129 462.75959926 53.90452997 466.99216195 56.75 471.1875 C60.503871 476.72758615 64.13397678 482.32923312 67.6875 488 C72.93695396 496.37186989 78.31449525 504.65517188 83.7487793 512.90820312 C86.68816901 517.38742454 89.59256221 521.88587258 92.40625 526.4453125 C92.89158203 527.2305127 93.37691406 528.01571289 93.87695312 528.82470703 C95.56354202 532.09155639 95.70189026 534.42035966 95 538 C92.14331822 542.25543849 88.96648642 544.53587947 84.58984375 547.13671875 C83.9811293 547.50223343 83.37241486 547.86774811 82.74525452 548.24433899 C80.81455774 549.40108552 78.8763774 550.54452948 76.9375 551.6875 C75.63162862 552.46590367 74.32628443 553.24519247 73.02148438 554.02539062 C70.63335478 555.4531657 68.2418851 556.87456227 65.84741211 558.29174805 C63.86822583 559.47912405 61.92040382 560.71973079 60 562 C57.73046875 562.4765625 57.73046875 562.4765625 55.1875 562.625 C54.35605469 562.69976563 53.52460937 562.77453125 52.66796875 562.8515625 C48.25628586 561.44344117 46.46295985 557.75432751 44 554 C43.56679443 553.35804688 43.13358887 552.71609375 42.68725586 552.0546875 C41.39314166 550.11313935 40.13059116 548.15415972 38.875 546.1875 C38.40618408 545.45813232 37.93736816 544.72876465 37.4543457 543.97729492 C32.98819702 537.01507441 28.57677642 530.01814284 24.16796875 523.01953125 C20.79525629 517.66909152 17.39858098 512.33403298 14 507 C8.89011012 498.9793775 3.799461 490.94692716 -1.26953125 482.90039062 C-1.73230469 482.16626953 -2.19507813 481.43214844 -2.671875 480.67578125 C-3.0750293 480.03552002 -3.47818359 479.39525879 -3.89355469 478.7355957 C-4.90838542 477.14370876 -5.95280808 475.57078788 -7 474 C-7.125 470.5625 -7.125 470.5625 -7 467 C-7 462.39978248 -7.91636324 461.16594169 -10.4375 457.4375 C-13.91176471 452.26470588 -13.91176471 452.26470588 -15 449 C-16.47146484 449.59748047 -16.47146484 449.59748047 -17.97265625 450.20703125 C-28.2673459 454.28533192 -38.79122473 458 -50 458 C-50.23847656 458.70125 -50.47695313 459.4025 -50.72265625 460.125 C-53.35578295 466.05154817 -57.95275903 470.96741749 -62 476 C-62.42458496 476.53189941 -62.84916992 477.06379883 -63.28662109 477.61181641 C-75.73725678 493.11099483 -89.78384251 506.50289169 -106 518 C-106.63260742 518.45068848 -107.26521484 518.90137695 -107.91699219 519.36572266 C-124.09544074 530.78254997 -141.34824931 539.38867097 -159.60009766 546.98779297 C-161.57384985 547.82026261 -163.52660518 548.70234142 -165.47265625 549.59765625 C-170.2947151 551.51473169 -175.22188449 552.74133223 -180.25 554 C-182.21369995 554.499378 -184.17724221 554.9993765 -186.140625 555.5 C-187.11451172 555.74580811 -188.08839844 555.99161621 -189.09179688 556.24487305 C-191.9241979 556.98031767 -194.73346526 557.77745005 -197.546875 558.58203125 C-214.97016945 563.33299361 -233.25868307 563.29046642 -251.1875 563.3125 C-252.10684326 563.31599457 -253.02618652 563.31948914 -253.97338867 563.3230896 C-270.2784583 563.35746776 -285.42877358 561.6840065 -301.3125 557.75 C-302.57360596 557.4398999 -303.83471191 557.1297998 -305.1340332 556.81030273 C-347.49513529 546.19764049 -385.98181364 524.83652788 -417 494 C-418.54586876 490.90826248 -418.29359521 488.40570448 -418 485 C-416.375 482.5625 -416.375 482.5625 -414 481 C-410.5611511 480.62835969 -408.62595488 480.63323757 -405.61328125 482.3984375 C-404.85402344 483.05070312 -404.09476563 483.70296875 -403.3125 484.375 C-402.44109375 485.11105469 -401.5696875 485.84710937 -400.671875 486.60546875 C-398.95220278 488.14663698 -397.25230428 489.71031094 -395.578125 491.30078125 C-366.24318695 519.13253148 -324.69123774 537.63560422 -285 544 C-283.94047119 544.17587646 -282.88094238 544.35175293 -281.78930664 544.53295898 C-271.35251178 546.11029597 -261.09965741 546.35796388 -250.5625 546.3125 C-249.68493042 546.31067719 -248.80736084 546.30885437 -247.90319824 546.30697632 C-233.76903275 546.25766511 -219.91657595 545.67039854 -206 543 C-205.17870605 542.8443457 -204.35741211 542.68869141 -203.51123047 542.52832031 C-176.51990093 537.14402563 -148.55874176 525.85301822 -126 510 C-125.46503906 509.63052246 -124.93007813 509.26104492 -124.37890625 508.88037109 C-103.49600739 494.44489284 -86.29029847 478.18196338 -71 458 C-72.07894531 457.98582031 -73.15789063 457.97164062 -74.26953125 457.95703125 C-88.97286984 457.56268884 -102.31757942 454.30542839 -116 449 C-116.35771484 449.84498047 -116.35771484 449.84498047 -116.72265625 450.70703125 C-129.15097238 473.01718896 -164.08815952 490.64842624 -187.18701172 499.31835938 C-188.7791709 499.91697349 -190.36122545 500.5423209 -191.94140625 501.171875 C-222.19312571 512.89385274 -260.71505175 514.33711609 -292 506 C-293.20100342 505.68651611 -293.20100342 505.68651611 -294.42626953 505.36669922 C-325.65407559 496.95993957 -358.49577711 478.88643844 -379.23619652 453.48605442 C-382.09459653 450.19400025 -383.48793579 449.09477896 -387.92153931 448.27415466 C-389.42107182 448.25443795 -390.92126155 448.26715423 -392.42041016 448.30639648 C-393.24391464 448.30379822 -394.06741913 448.30119995 -394.9158783 448.29852295 C-396.69521328 448.29681367 -398.47460409 448.30886109 -400.25377274 448.33325005 C-403.07036993 448.37151912 -405.88492862 448.37314944 -408.70175171 448.36549377 C-414.67648857 448.35617903 -420.65044201 448.39508391 -426.625 448.4375 C-433.55639915 448.48220348 -440.48710964 448.50718825 -447.41865158 448.49293709 C-450.19337783 448.49605644 -452.96664156 448.52979161 -455.74111938 448.56504822 C-457.44020554 448.56616965 -459.13929328 448.56596183 -460.83837891 448.56420898 C-461.60938431 448.58226089 -462.38038971 448.60031281 -463.17475891 448.61891174 C-467.00665699 448.58330399 -468.64713102 448.33417888 -471.47494507 445.65614319 C-473.3496654 442.39099809 -473.70899427 440.70252561 -473 437 C-470.28249186 434.20847629 -468.62532357 433.09230305 -464.74125671 432.51898193 C-463.50881729 432.52786438 -462.27637787 432.53674683 -461.0065918 432.54589844 C-460.32311172 432.54531433 -459.63963165 432.54473022 -458.93544006 432.54412842 C-456.68950566 432.54690215 -454.44491957 432.57795718 -452.19921875 432.609375 C-450.63695501 432.61684 -449.07468187 432.62253171 -447.5124054 432.62652588 C-443.41045045 432.64176204 -439.30906653 432.68102574 -435.20733643 432.7253418 C-431.01786014 432.76633849 -426.82829115 432.78454624 -422.63867188 432.8046875 C-414.42551988 432.84752259 -406.21283107 432.91574869 -398 433 C-398.7891654 431.40882851 -399.57981979 429.81839546 -400.37109375 428.22827148 C-400.81122803 427.34251938 -401.2513623 426.45676727 -401.70483398 425.54417419 C-403.3542309 422.30416247 -405.15294658 419.19429824 -407 416.0625 C-416 400.55752841 -416 400.55752841 -416 395 C-416.55714786 395.00460896 -417.11429571 395.00921793 -417.68832684 395.01396656 C-431.25094126 395.12443419 -444.81347677 395.20683138 -458.37644482 395.25906086 C-464.93545977 395.28516713 -471.49415029 395.3205853 -478.05297852 395.37719727 C-484.38127651 395.43147832 -490.70926223 395.46141277 -497.03777504 395.47438622 C-499.45356476 395.48363296 -501.86933716 395.50168953 -504.28499413 395.52865028 C-507.66587791 395.56488699 -511.0454673 395.56994736 -514.42651367 395.56762695 C-515.42776779 395.58560333 -516.42902191 395.60357971 -517.46061707 395.62210083 C-522.13297965 395.58734532 -524.29420521 395.52930216 -528.12568665 392.65592957 C-530 390 -530 390 -530.5625 386.9375 C-529.83982921 383.16355252 -529.1365104 382.23413444 -526 380 C-522.6685981 379.41282646 -519.37354783 379.49524652 -515.99902344 379.54589844 C-514.98406799 379.54531433 -513.96911255 379.54473022 -512.92340088 379.54412842 C-509.56837778 379.5469153 -506.21424291 379.57803687 -502.859375 379.609375 C-500.53339117 379.61683521 -498.20740105 379.62252918 -495.88140869 379.62652588 C-489.75906017 379.64179935 -483.63709115 379.68109647 -477.51489258 379.7253418 C-471.26779311 379.76625724 -465.02063233 379.78452896 -458.7734375 379.8046875 C-446.51545825 379.84758862 -434.25776068 379.91586109 -422 380 C-422.14622803 379.3702124 -422.29245605 378.7404248 -422.44311523 378.09155273 C-423.11093443 375.20755926 -423.77424969 372.32254749 -424.4375 369.4375 C-424.78264648 367.9515332 -424.78264648 367.9515332 -425.13476562 366.43554688 C-427.18741241 357.48124711 -428.14955665 349.18942511 -428 340 C-428.8354494 340.00460896 -429.6708988 340.00921793 -430.53166485 340.01396656 C-450.85392221 340.12435718 -471.17612794 340.20711346 -491.49862194 340.25906086 C-501.3264206 340.28484957 -511.1540192 340.32001285 -520.98168945 340.37719727 C-529.54685626 340.4270118 -538.11187819 340.45928616 -546.67718583 340.47044247 C-551.21311106 340.47696456 -555.74862182 340.49230697 -560.28441429 340.52865028 C-564.5534394 340.56257909 -568.82187917 340.57305937 -573.09102631 340.56553841 C-574.65797672 340.56691436 -576.22494662 340.57686586 -577.79178047 340.59602737 C-579.93211141 340.62091928 -582.07023472 340.61492253 -584.21061707 340.60127258 C-585.40802615 340.60588155 -586.60543524 340.61049051 -587.83912945 340.61523914 C-591.94069412 339.81690112 -593.43214059 338.22843942 -596 335 C-596.5625 331.9375 -596.5625 331.9375 -596 329 C-593.79222877 326.05779037 -592.61796894 325.09961189 -588.94655991 324.50780869 C-587.74085468 324.51149586 -586.53514946 324.51518303 -585.29290771 324.51898193 C-584.61978743 324.51556423 -583.94666714 324.51214653 -583.25314927 324.50862527 C-580.99873589 324.50203908 -578.74551451 324.5240326 -576.49121094 324.54589844 C-574.87487822 324.54702677 -573.25854344 324.54639334 -571.64221191 324.54412842 C-567.25397964 324.54297976 -562.86618384 324.56651345 -558.47805309 324.59442425 C-553.89231256 324.6194127 -549.30656227 324.62177788 -544.72076416 324.62652588 C-536.03680558 324.63896318 -527.35304819 324.67179499 -518.66917825 324.71192384 C-508.78296584 324.75661808 -498.89674388 324.77862268 -489.01045561 324.79870558 C-468.67352474 324.84052696 -448.33677504 324.91089368 -428 325 C-428.00514083 324.10387591 -428.01028166 323.20775183 -428.01557827 322.28447247 C-428.01957669 321.1108204 -428.02357512 319.93716833 -428.0276947 318.72795105 C-428.03283553 317.56370196 -428.03797636 316.39945288 -428.04327297 315.19992352 C-427.99822531 311.86876634 -427.65604058 308.80419584 -426.94140625 305.55078125 C-426.72033203 304.51888672 -426.49925781 303.48699219 -426.27148438 302.42382812 C-426.03751953 301.39708984 -425.80355469 300.37035156 -425.5625 299.3125 C-425.33240234 298.24322266 -425.10230469 297.17394531 -424.86523438 296.07226562 C-423.18028508 288.36057016 -423.18028508 288.36057016 -422 286 C-422.56322338 286.00460896 -423.12644676 286.00921793 -423.70673752 286.01396656 C-437.41087062 286.12438572 -451.11492581 286.2068079 -464.81940842 286.25906086 C-471.44683126 286.28517806 -478.07393355 286.32061607 -484.70117188 286.37719727 C-491.09430348 286.43143947 -497.48712636 286.46140453 -503.88047028 286.47438622 C-506.32220573 286.48363997 -508.76392389 286.50170999 -511.20552826 286.52865028 C-514.62014055 286.5648354 -518.03346968 286.56994954 -521.44824219 286.56762695 C-522.46244232 286.58560333 -523.47664246 286.60357971 -524.52157593 286.62210083 C-531.35907933 286.5716244 -531.35907933 286.5716244 -534.62823486 283.65592957 C-536.30356624 280.41225322 -536.6129567 278.60112064 -536 275 C-534.66265869 272.8447876 -534.66265869 272.8447876 -532 271 C-528.30316037 270.40475101 -524.63412015 270.49569097 -520.89746094 270.54589844 C-519.76546265 270.54531433 -518.63346436 270.54473022 -517.46716309 270.54412842 C-513.72258932 270.54691687 -509.97880985 270.57804648 -506.234375 270.609375 C-503.63934769 270.61683464 -501.04431474 270.62252888 -498.44927979 270.62652588 C-492.31521684 270.640242 -486.18148208 270.6717725 -480.04754281 270.71192384 C-473.06334278 270.7566475 -466.07912905 270.77863002 -459.09482145 270.79870558 C-444.72972772 270.84050565 -430.364874 270.91085393 -416 271 C-415.85176285 270.21875259 -415.7035257 269.43750519 -415.55079651 268.63258362 C-414.67349886 264.43945717 -412.76754429 260.79070883 -410.9375 256.9375 C-410.57978516 256.15439453 -410.22207031 255.37128906 -409.85351562 254.56445312 C-407.53772358 249.65878731 -404.86550676 245.17726373 -401.83032227 240.67797852 C-401.11231949 239.61072037 -400.39431671 238.54346222 -399.65455627 237.44386292 C-398.83555092 236.23415077 -398.83555092 236.23415077 -398 235 C-398.91819519 234.99635437 -399.83639038 234.99270874 -400.78240967 234.98895264 C-409.43447347 234.95109007 -418.08615965 234.8942572 -426.737957 234.81609726 C-431.18599679 234.77658349 -435.63383746 234.7444143 -440.08203125 234.72900391 C-444.37462525 234.71386278 -448.66667197 234.67946317 -452.95902252 234.63169098 C-454.59682713 234.61685078 -456.23470986 234.60895747 -457.87258148 234.60811615 C-460.16662479 234.60575254 -462.45914813 234.57872522 -464.75292969 234.54589844 C-466.05864929 234.53701599 -467.3643689 234.52813354 -468.70965576 234.51898193 C-472 234 -472 234 -474.42169189 232.18463135 C-476.73022137 228.9892566 -476.54871771 226.84102394 -476 223 C-474.49981689 220.80743408 -474.49981689 220.80743408 -472 219 C-469.03938119 218.63816611 -466.45781637 218.516477 -463.50292969 218.58105469 C-462.21922737 218.58482368 -462.21922737 218.58482368 -460.90959167 218.58866882 C-459.05272929 218.59607678 -457.19588591 218.6123381 -455.33916473 218.63640594 C-452.39589356 218.67219089 -449.45379024 218.67981084 -446.51031494 218.67926025 C-438.14275073 218.68188305 -429.77583914 218.72824644 -421.40869141 218.81103516 C-416.28797827 218.85972711 -411.16836921 218.86941105 -406.04746246 218.85544586 C-404.10023442 218.85804991 -402.15296452 218.87564822 -400.20601654 218.90877533 C-389.73245944 219.44177153 -389.73245944 219.44177153 -380.07189941 216.24186707 C-378.0810003 214.26237747 -376.55505558 212.32617367 -375 210 C-373.36271695 208.56981376 -371.69948955 207.16817834 -370 205.8125 C-369.06542969 205.06484375 -368.13085938 204.3171875 -367.16796875 203.546875 C-366.4107251 202.94262695 -366.4107251 202.94262695 -365.63818359 202.32617188 C-363.83947647 200.8700501 -362.06967608 199.38280343 -360.30078125 197.890625 C-336.44001418 177.88620335 -309.17850684 163.92084618 -277.9375 160.3125 C-276.85404297 160.18657471 -275.77058594 160.06064941 -274.65429688 159.9309082 C-259.93956781 158.33002025 -245.62836393 158.51038549 -230.99267578 160.70556641 C-229.13300761 160.98034707 -227.26771746 161.21630021 -225.40234375 161.44921875 C-200.57097536 165.19384222 -174.6060128 175.80116931 -154 190 C-155.32 190.33 -156.64 190.66 -158 191 C-157.50113281 191.30550781 -157.00226563 191.61101562 -156.48828125 191.92578125 C-150.27219266 195.88756123 -144.77888255 200.46678641 -139.20703125 205.26171875 C-136.44070258 207.63979076 -133.61491824 209.92853647 -130.75 212.1875 C-126.00260209 215.94650523 -121.48164796 219.92971103 -117 224 C-115.80375 223.5875 -114.6075 223.175 -113.375 222.75 C-111.58470427 222.16247261 -109.79287339 221.57961386 -108 221 C-107.01773437 220.67515625 -106.03546875 220.3503125 -105.0234375 220.015625 C-94.52477675 216.75828395 -83.8830585 215.35220366 -73 214 C-74.66403273 212.76726987 -76.33138607 211.53902192 -78 210.3125 C-79.51207031 209.20068359 -79.51207031 209.20068359 -81.0546875 208.06640625 C-83.38124936 206.4341102 -85.62791272 205.07942096 -88.125 203.75 C-94.86147289 199.63402878 -98.95332197 192.11991824 -103.21875 185.64453125 C-111.68583145 172.85701451 -122.2688559 165.09341802 -135 157 C-136.08539062 156.29746094 -137.17078125 155.59492188 -138.2890625 154.87109375 C-145.96637077 150.00371841 -153.90993345 145.87949444 -162.08789062 141.93774414 C-163.37124068 141.3083586 -164.64609146 140.66136294 -165.91210938 139.99780273 C-171.07919352 137.30370368 -176.33743117 135.35986257 -181.875 133.5625 C-182.79265137 133.2624707 -183.71030273 132.96244141 -184.65576172 132.65332031 C-206.55381508 125.56943424 -227.13772756 121.45415254 -250.25048828 121.55395508 C-253.23410471 121.56245472 -256.21578985 121.53357698 -259.19921875 121.50195312 C-279.04124984 121.43038629 -298.21924739 124.59492885 -317 131 C-318.15193848 131.39276123 -318.15193848 131.39276123 -319.32714844 131.79345703 C-349.41469107 142.20182449 -375.92805063 157.69121982 -398.94140625 179.87109375 C-401.85215114 182.58648663 -403.76861777 183.92420237 -407.625 185.1875 C-411 185 -411 185 -413.9375 183 C-416.56306793 179.1809921 -416.65936103 177.57283477 -416 173 C-414.14780168 170.20325282 -411.82558723 168.0247349 -409.375 165.75 C-408.69566406 165.09813721 -408.01632812 164.44627441 -407.31640625 163.7746582 C-400.89658443 157.70843278 -394.15760896 152.16804312 -387 147 C-386.44473633 146.59507324 -385.88947266 146.19014648 -385.31738281 145.77294922 C-351.148288 121.1414887 -307.41426012 104.55818479 -265 105 C-265 96.75 -265 88.5 -265 80 C-267.60406738 80.03927612 -267.60406738 80.03927612 -270.26074219 80.0793457 C-276.00021399 80.16000999 -281.73966621 80.21744066 -287.47953415 80.25906086 C-290.95933474 80.28514222 -294.43852147 80.32051044 -297.91796875 80.37719727 C-301.91933033 80.44197819 -305.92004839 80.46619212 -309.921875 80.48828125 C-311.79392609 80.52699089 -311.79392609 80.52699089 -313.70379639 80.56648254 C-314.86469788 80.5668602 -316.02559937 80.56723785 -317.22167969 80.56762695 C-318.24316101 80.57873001 -319.26464233 80.58983307 -320.31707764 80.60127258 C-323.99190613 79.77770286 -325.01823488 78.11299116 -327 75 C-327.48583984 72.47973633 -327.48583984 72.47973633 -327.4609375 69.83203125 C-327.45707031 68.85556641 -327.45320313 67.87910156 -327.44921875 66.87304688 C-327.42472656 65.86306641 -327.40023438 64.85308594 -327.375 63.8125 C-327.37306641 62.3265332 -327.37306641 62.3265332 -327.37109375 60.81054688 C-327.22398158 48.34687651 -324.94667256 38.91099784 -316.6875 29.3125 C-302.96145337 17.50171569 -292.88668624 15.86436838 -274.96484375 15.76171875 C-274.29585115 15.75764322 -273.62685856 15.7535677 -272.93759346 15.74936867 C-269.39305063 15.72861331 -265.84854524 15.71426923 -262.30395508 15.70483398 C-258.68902693 15.69381902 -255.07472262 15.65944653 -251.46001339 15.61966228 C-248.63970492 15.59320669 -245.81953845 15.58511673 -242.9991169 15.58155251 C-241.03251906 15.57446273 -239.0660195 15.5481553 -237.09959412 15.52116394 C-222.46411823 15.55585181 -208.50525453 18.71357706 -197.72265625 29.21875 C-188.01793099 40.35117228 -186.13115827 51.84818806 -187 66 C-187.06767578 67.53333984 -187.06767578 67.53333984 -187.13671875 69.09765625 C-187.44195065 73.70326642 -187.69045492 76.55537878 -191 80 C-193.60063171 80.48101807 -193.60063171 80.48101807 -196.7565918 80.45410156 C-198.52808846 80.45364838 -198.52808846 80.45364838 -200.33537292 80.45318604 C-201.61044205 80.43254089 -202.88551117 80.41189575 -204.19921875 80.390625 C-205.50454056 80.38496521 -206.80986237 80.37930542 -208.15473938 80.37347412 C-211.62218946 80.35821392 -215.08896749 80.31893032 -218.55615234 80.2746582 C-222.09528512 80.23371291 -225.63452668 80.21546479 -229.17382812 80.1953125 C-236.11618905 80.15243514 -243.05799306 80.08208294 -250 80 C-250 87.92 -250 95.84 -250 104 C-246.101875 103.9071875 -246.101875 103.9071875 -242.125 103.8125 C-221.38261997 103.65177796 -200.75369865 106.78525613 -181.0625 113.25 C-174.29770301 115.38936705 -168.50800413 116.12520887 -161.6875 113.9375 C-156.35208021 110.09103457 -154.09696185 105.99458037 -152.625 99.625 C-151.10168786 93.46442272 -148.31100945 89.58147202 -144 85 C-142.95199219 83.87271484 -142.95199219 83.87271484 -141.8828125 82.72265625 C-134.88031278 75.82625501 -126.8349825 71.99604992 -118 68 C-116.88882812 67.47664063 -115.77765625 66.95328125 -114.6328125 66.4140625 C-106.61769439 62.78131112 -98.40070464 60.0948014 -89.98974609 57.53491211 C-84.61839226 55.89136549 -79.41217347 54.0393353 -74.21533203 51.90625 C-71.52250712 50.80466679 -68.79443157 49.81254788 -66.0625 48.8125 C-40.90072025 39.1097854 -17.19026403 25.92567553 -2 3 C-1.34 2.01 -0.68 1.02 0 0 Z " fill="#072759" transform="translate(1011,193)"/>
<path d="M0 0 C6.21889061 5.71164015 12.13511736 11.73900225 18.0625 17.75 C16.8111582 21.50402541 15.81984514 21.67177905 12.4375 23.5625 C-12.22823207 38.79816025 -28.65549098 65.53400505 -36.08984375 93.07421875 C-43.29534549 124.32019633 -38.13619493 158.04508923 -21.9375 185.75 C-11.17214406 202.87411812 2.85709066 217.06179117 20.0625 227.75 C-2.20769682 255.58774602 -36.60167023 272.02781734 -70.82617188 279.29199219 C-72.24983034 279.60082467 -73.66809944 279.93548035 -75.08007812 280.29394531 C-83.24691387 282.22021585 -91.47200449 282.14488463 -99.8125 282.125 C-100.97718811 282.12518127 -100.97718811 282.12518127 -102.16540527 282.12536621 C-113.74501162 282.09970669 -124.68599229 281.3600565 -135.91162109 278.296875 C-137.86129285 277.77057171 -139.8312083 277.32109135 -141.80078125 276.875 C-169.24912385 270.38246701 -193.82372531 255.19144796 -213.9375 235.75 C-214.80117188 234.93789063 -215.66484375 234.12578125 -216.5546875 233.2890625 C-227.41915627 222.8307421 -235.6525006 210.87429865 -242.9375 197.75 C-243.28554688 197.12786621 -243.63359375 196.50573242 -243.9921875 195.86474609 C-262.69933714 161.94045547 -269.47268356 118.49072688 -259.13916016 80.84130859 C-255.33232954 67.82793152 -250.52096026 55.59488691 -243.9375 43.75 C-243.37417969 42.69941406 -242.81085937 41.64882813 -242.23046875 40.56640625 C-235.69114251 28.78949318 -227.14275818 18.5327098 -217.9375 8.75 C-217.36257813 8.110625 -216.78765625 7.47125 -216.1953125 6.8125 C-201.78256207 -8.56110046 -181.75579087 -21.25243063 -161.9375 -28.25 C-161.24237305 -28.49588867 -160.54724609 -28.74177734 -159.83105469 -28.99511719 C-105.37621728 -48.09924762 -43.78496003 -38.46070889 0 0 Z " fill="#FCFCFC" transform="translate(861.9375,406.25)"/>
<path d="M0 0 C1.90662114 1.48626372 3.803483 2.98518517 5.6875 4.5 C6.41710937 5.07492187 7.14671875 5.64984375 7.8984375 6.2421875 C26.12466302 21.29863467 40.05698988 46.4867877 42.50439453 70.09960938 C44.94338402 102.07313563 38.07126733 130.13154319 17.0234375 154.87890625 C-2.87260759 177.20373276 -29.75528283 189.9614686 -59.66015625 191.82421875 C-74.05860366 192.36117521 -88.98153174 190.03574106 -102.3125 184.5 C-102.95848145 184.23743408 -103.60446289 183.97486816 -104.27001953 183.7043457 C-132.69908004 171.8524772 -152.59386361 150.24936787 -164.33203125 122.05078125 C-165.10244218 119.88786285 -165.70533812 117.71414121 -166.3125 115.5 C-166.66183594 114.51902344 -167.01117187 113.53804687 -167.37109375 112.52734375 C-173.09575542 94.3233158 -173.16392385 69.37856755 -166.3125 51.5 C-166.07112305 50.85256836 -165.82974609 50.20513672 -165.58105469 49.53808594 C-160.07525537 35.02909277 -152.1379568 22.6483213 -141.3125 11.5 C-140.63960937 10.75363281 -139.96671875 10.00726563 -139.2734375 9.23828125 C-124.60350262 -6.50305337 -104.10023796 -15.3377493 -83.3125 -19.5 C-81.93384766 -19.78810547 -81.93384766 -19.78810547 -80.52734375 -20.08203125 C-51.78654877 -23.81868382 -23.34220629 -17.20720839 0 0 Z " fill="#F8F9FB" transform="translate(1009.3125,444.5)"/>
<path d="M0 0 C0.33 0 0.66 0 1 0 C1.41850946 11.6601386 1.62731119 22.05022402 -3 33 C-3.33902344 33.83144531 -3.67804688 34.66289062 -4.02734375 35.51953125 C-9.31910702 47.17647597 -17.70281191 56.96402052 -26.44311523 66.15551758 C-30.30842987 70.22101166 -33.88396824 74.3206349 -37 79 C-37.61294922 79.85078125 -37.61294922 79.85078125 -38.23828125 80.71875 C-41.301757 85.35080956 -41.98650476 89.62095298 -41 95 C-39.75 97.75 -39.75 97.75 -37 99 C-31.03614838 100.24048114 -26.41165669 98.82271199 -21.32421875 95.6796875 C-10.9332167 88.17022384 -2.98715927 78.85766144 3.98071289 68.21582031 C4.93896976 66.77726666 5.96425392 65.38380739 7 64 C7.66 64 8.32 64 9 64 C13.67407453 80.90488178 8.65200162 101.06221258 0.375 115.9375 C-5.42702315 125.14318525 -12.50986876 131.84084763 -21.25 138.125 C-29.6839781 144.20539098 -29.6839781 144.20539098 -35 153 C-35.67174175 156.79767901 -35.67174175 156.79767901 -35 160 C-32.68179828 162.31820172 -32.05438745 162.42022589 -28.875 162.625 C-18.7071887 162.44765445 -7.9474616 155.40862233 -0.3828125 149.03125 C1 148 1 148 3 148 C5.47572406 152.95144811 4.73593262 160.57916302 4 166 C1.55337173 172.86803507 -3.12720716 177.8360936 -9 182 C-9.90234375 182.65355469 -10.8046875 183.30710937 -11.734375 183.98046875 C-15.32110108 186.19857567 -18.78761337 187.56439103 -22.75 188.9375 C-37.25987867 193.81846857 -37.25987867 193.81846857 -47 205 C-47.2275015 206.87056791 -47.40962811 208.74685958 -47.5625 210.625 C-47.68818359 212.12933594 -47.68818359 212.12933594 -47.81640625 213.6640625 C-47.87699219 214.43492187 -47.93757813 215.20578125 -48 216 C-71.89383741 216.41088041 -71.89383741 216.41088041 -77.9375 211.25 C-79.29168587 209.83335169 -80.64585423 208.41668664 -82 207 C-84.23619557 205.72053242 -84.23619557 205.72053242 -86.5625 204.6875 C-94.31050185 200.60169303 -99.02177168 192.71204139 -103.5 185.4375 C-111.61195063 172.52049754 -122.38609074 165.12195451 -135 157 C-135.92981689 156.39212646 -135.92981689 156.39212646 -136.87841797 155.77197266 C-144.96191777 150.4980822 -153.40737058 146.1217282 -162.08789062 141.93774414 C-163.37124068 141.3083586 -164.64609146 140.66136294 -165.91210938 139.99780273 C-171.07919352 137.30370368 -176.33743117 135.35986257 -181.875 133.5625 C-182.79265137 133.2624707 -183.71030273 132.96244141 -184.65576172 132.65332031 C-206.55381508 125.56943424 -227.13772756 121.45415254 -250.25048828 121.55395508 C-253.23410471 121.56245472 -256.21578985 121.53357698 -259.19921875 121.50195312 C-279.04124984 121.43038629 -298.21924739 124.59492885 -317 131 C-317.76795898 131.26184082 -318.53591797 131.52368164 -319.32714844 131.79345703 C-349.41469107 142.20182449 -375.92805063 157.69121982 -398.94140625 179.87109375 C-401.85215114 182.58648663 -403.76861777 183.92420237 -407.625 185.1875 C-411 185 -411 185 -413.9375 183 C-416.56306793 179.1809921 -416.65936103 177.57283477 -416 173 C-414.14780168 170.20325282 -411.82558723 168.0247349 -409.375 165.75 C-408.35599609 164.77220581 -408.35599609 164.77220581 -407.31640625 163.7746582 C-400.89658443 157.70843278 -394.15760896 152.16804312 -387 147 C-386.44473633 146.59507324 -385.88947266 146.19014648 -385.31738281 145.77294922 C-351.148288 121.1414887 -307.41426012 104.55818479 -265 105 C-265 96.75 -265 88.5 -265 80 C-266.73604492 80.02618408 -268.47208984 80.05236816 -270.26074219 80.0793457 C-276.00021399 80.16000999 -281.73966621 80.21744066 -287.47953415 80.25906086 C-290.95933474 80.28514222 -294.43852147 80.32051044 -297.91796875 80.37719727 C-301.91933033 80.44197819 -305.92004839 80.46619212 -309.921875 80.48828125 C-311.79392609 80.52699089 -311.79392609 80.52699089 -313.70379639 80.56648254 C-314.86469788 80.5668602 -316.02559937 80.56723785 -317.22167969 80.56762695 C-318.24316101 80.57873001 -319.26464233 80.58983307 -320.31707764 80.60127258 C-323.99190613 79.77770286 -325.01823488 78.11299116 -327 75 C-327.48583984 72.47973633 -327.48583984 72.47973633 -327.4609375 69.83203125 C-327.45707031 68.85556641 -327.45320312 67.87910156 -327.44921875 66.87304688 C-327.41248047 65.35807617 -327.41248047 65.35807617 -327.375 63.8125 C-327.37371094 62.82185547 -327.37242187 61.83121094 -327.37109375 60.81054688 C-327.22398158 48.34687651 -324.94667256 38.91099784 -316.6875 29.3125 C-302.96145337 17.50171569 -292.88668624 15.86436838 -274.96484375 15.76171875 C-274.29585115 15.75764322 -273.62685856 15.7535677 -272.93759346 15.74936867 C-269.39305063 15.72861331 -265.84854524 15.71426923 -262.30395508 15.70483398 C-258.68902693 15.69381902 -255.07472262 15.65944653 -251.46001339 15.61966228 C-248.63970492 15.59320669 -245.81953845 15.58511673 -242.9991169 15.58155251 C-241.03251906 15.57446273 -239.0660195 15.5481553 -237.09959412 15.52116394 C-222.46411823 15.55585181 -208.50525453 18.71357706 -197.72265625 29.21875 C-188.01793099 40.35117228 -186.13115827 51.84818806 -187 66 C-187.04511719 67.02222656 -187.09023438 68.04445313 -187.13671875 69.09765625 C-187.44195065 73.70326642 -187.69045492 76.55537878 -191 80 C-193.60063171 80.48101807 -193.60063171 80.48101807 -196.7565918 80.45410156 C-198.52808846 80.45364838 -198.52808846 80.45364838 -200.33537292 80.45318604 C-201.61044205 80.43254089 -202.88551117 80.41189575 -204.19921875 80.390625 C-205.50454056 80.38496521 -206.80986237 80.37930542 -208.15473938 80.37347412 C-211.62218946 80.35821392 -215.08896749 80.31893032 -218.55615234 80.2746582 C-222.09528512 80.23371291 -225.63452668 80.21546479 -229.17382812 80.1953125 C-236.11618905 80.15243514 -243.05799306 80.08208294 -250 80 C-250 87.92 -250 95.84 -250 104 C-246.101875 103.9071875 -246.101875 103.9071875 -242.125 103.8125 C-221.38261997 103.65177796 -200.75369865 106.78525613 -181.0625 113.25 C-174.29770301 115.38936705 -168.50800413 116.12520887 -161.6875 113.9375 C-156.35208021 110.09103457 -154.09696185 105.99458037 -152.625 99.625 C-151.10168786 93.46442272 -148.31100945 89.58147202 -144 85 C-142.95199219 83.87271484 -142.95199219 83.87271484 -141.8828125 82.72265625 C-134.88031278 75.82625501 -126.8349825 71.99604992 -118 68 C-116.88882812 67.47664063 -115.77765625 66.95328125 -114.6328125 66.4140625 C-106.61769439 62.78131112 -98.40070464 60.0948014 -89.98974609 57.53491211 C-84.61839226 55.89136549 -79.41217347 54.0393353 -74.21533203 51.90625 C-71.52250712 50.80466679 -68.79443157 49.81254788 -66.0625 48.8125 C-40.90072025 39.1097854 -17.19026403 25.92567553 -2 3 C-1.34 2.01 -0.68 1.02 0 0 Z " fill="#F25A0F" transform="translate(1011,193)"/>
<path d="M0 0 C4.77085365 3.62999734 4.77085365 3.62999734 5.3671875 7.1953125 C4.85350605 11.11896442 3.0982845 14.24982192 1.25 17.6875 C-0.96588316 21.8689536 -3.05592646 26.01434771 -4.76953125 30.4296875 C-7.81918616 38.24564582 -11.43012848 45.81946675 -14.9375 53.4375 C-15.64801288 54.9849221 -16.35830077 56.53244752 -17.06835938 58.08007812 C-17.41484528 58.83503571 -17.76133118 59.58999329 -18.11831665 60.36782837 C-18.80200473 61.85766426 -19.48558006 63.3475519 -20.16903687 64.8374939 C-21.63408181 68.03016182 -23.10262008 71.2209134 -24.58251953 74.40673828 C-25.03095215 75.37724121 -25.47938477 76.34774414 -25.94140625 77.34765625 C-26.32111572 78.16371338 -26.7008252 78.97977051 -27.09204102 79.82055664 C-27.9461311 81.87069436 -28.52923201 83.8331054 -29 86 C-28.41992188 86.268125 -27.83984375 86.53625 -27.2421875 86.8125 C-19.54076195 90.89130378 -14.85186476 97.36444509 -11 105 C-10.45859375 106.06734375 -9.9171875 107.1346875 -9.359375 108.234375 C-7.56499324 112.5274319 -7.50438983 116.64684414 -7.5625 121.25 C-7.57385986 122.50744019 -7.57385986 122.50744019 -7.58544922 123.7902832 C-7.85880107 134.11280749 -10.92795497 142.38395151 -18 150 C-20.58260581 152.44275351 -23.24094316 154.75914166 -26 157 C-23.43955659 162.23902477 -20.5447845 167.30138353 -17.71508789 172.39794922 C-16.69917555 174.22895683 -15.68644815 176.06170133 -14.67382812 177.89453125 C-11.90442079 182.89078604 -9.14167816 187.8603405 -6.02734375 192.65234375 C-4 196 -4 196 -3.875 199.3125 C-5.3396915 202.81148525 -6.51145104 203.55907761 -10 205 C-11.6396875 205.2165625 -11.6396875 205.2165625 -13.3125 205.4375 C-16.57341206 205.93492726 -18.04182937 206.41809998 -20.8125 207.9375 C-28.49653514 212.01594942 -37.44308157 212.51229999 -46 213 C-47.09828125 213.07734375 -48.1965625 213.1546875 -49.328125 213.234375 C-72.58782203 214.14059696 -95.62103793 204.06952532 -112.61328125 188.44140625 C-124.3287782 176.4574691 -133.17785383 162.09711595 -138 146 C-138.29777344 145.07832031 -138.59554687 144.15664063 -138.90234375 143.20703125 C-145.38167736 120.12627144 -140.38407271 95.90953328 -129.03515625 75.375 C-118.67069898 57.5985645 -102.59156501 45.30686947 -84 37 C-82.80375 36.46375 -81.6075 35.9275 -80.375 35.375 C-64.21393863 29.69591217 -47.66395377 30.02185819 -31 33 C-28.33605968 33.36674519 -25.67074551 33.68579465 -23 34 C-22.731875 33.33097656 -22.46375 32.66195312 -22.1875 31.97265625 C-18.69546102 23.41486336 -14.83132396 15.05526775 -10.82666016 6.7265625 C-10.16539578 5.34544564 -9.52287985 3.955358 -8.88671875 2.5625 C-6.92606593 -0.89239483 -3.54857521 -0.41747944 0 0 Z " fill="#072757" transform="translate(809,406)"/>
<path d="M0 0 C1.05960938 -0.01611328 2.11921875 -0.03222656 3.2109375 -0.04882812 C10.47568652 -0.05327956 16.73528586 1.04354503 23.625 3.3125 C24.80191406 3.68890625 25.97882813 4.0653125 27.19140625 4.453125 C45.78691279 11.33855376 60.92091164 25.50288336 69.375 43.421875 C76.62691943 60.19193869 77.66695472 82.07728377 71.39550781 99.40771484 C63.66201047 118.52582203 49.44071457 133.85107018 30.5 142.25 C13.08952645 149.52716848 -10.03203406 150.09092782 -27.75 143.0625 C-48.16298808 133.57321905 -62.08230992 118.46379111 -70.4375 97.66796875 C-75.86718088 82.34478281 -76.10390466 61.1495258 -69.375 46.3125 C-68.93929687 45.29414063 -68.50359375 44.27578125 -68.0546875 43.2265625 C-64.761356 36.08201275 -60.59564186 30.17122031 -55.375 24.3125 C-54.72015625 23.55195313 -54.0653125 22.79140625 -53.390625 22.0078125 C-39.49221108 6.90765602 -20.1315712 -0.06078373 0 0 Z " fill="#FCFDFD" transform="translate(944.375,455.6875)"/>
<path d="M0 0 C0.6689926 -0.00407553 1.33798519 -0.00815105 2.02725029 -0.01235008 C5.57179312 -0.03310544 9.11629851 -0.04744952 12.66088867 -0.05688477 C16.27581682 -0.06789973 19.89012113 -0.10227222 23.50483036 -0.14205647 C26.32513883 -0.16851206 29.1453053 -0.17660202 31.96572685 -0.18016624 C33.93232469 -0.18725602 35.89882425 -0.21356345 37.86524963 -0.24055481 C52.50072552 -0.20586694 66.45958922 2.95185831 77.2421875 13.45703125 C86.94691276 24.58945353 88.83368548 36.08646931 87.96484375 50.23828125 C87.91972656 51.26050781 87.87460937 52.28273438 87.828125 53.3359375 C87.5228931 57.94154767 87.27438883 60.79366003 83.96484375 64.23828125 C81.36421204 64.71929932 81.36421204 64.71929932 78.20825195 64.69238281 C76.43675529 64.69192963 76.43675529 64.69192963 74.62947083 64.69146729 C73.3544017 64.67082214 72.07933258 64.650177 70.765625 64.62890625 C69.46030319 64.62324646 68.15498138 64.61758667 66.81010437 64.61175537 C63.34265429 64.59649517 59.87587626 64.55721157 56.40869141 64.51293945 C52.86955863 64.47199416 49.33031707 64.45374604 45.79101562 64.43359375 C38.8486547 64.39071639 31.90685069 64.32036419 24.96484375 64.23828125 C24.96484375 72.15828125 24.96484375 80.07828125 24.96484375 88.23828125 C27.76984375 88.19703125 30.57484375 88.15578125 33.46484375 88.11328125 C42.44019139 88.04919953 51.10480076 88.86955737 59.96484375 90.23828125 C57.17569496 94.42200444 53.82210773 94.99136863 49.203125 96.6640625 C46.21145007 98.11839904 45.12804422 99.05134155 42.93359375 101.359375 C37.86447699 105.89835157 31.60598552 105.04010275 25.15234375 104.98828125 C22.53248293 105.02387586 19.91268235 105.0642272 17.29296875 105.109375 C16.02904297 105.12597168 14.76511719 105.14256836 13.46289062 105.15966797 C-37.36447455 106.30193567 -87.64898361 129.09748307 -123.9765625 164.109375 C-126.88730739 166.82476788 -128.80377402 168.16248362 -132.66015625 169.42578125 C-136.03515625 169.23828125 -136.03515625 169.23828125 -138.97265625 167.23828125 C-141.59822418 163.41927335 -141.69451728 161.81111602 -141.03515625 157.23828125 C-139.18295793 154.44153407 -136.86074348 152.26301615 -134.41015625 149.98828125 C-133.39115234 149.01048706 -133.39115234 149.01048706 -132.3515625 148.01293945 C-125.93174068 141.94671403 -119.19276521 136.40632437 -112.03515625 131.23828125 C-111.47989258 130.83335449 -110.92462891 130.42842773 -110.35253906 130.01123047 C-76.18344425 105.37976995 -32.44941637 88.79646604 9.96484375 89.23828125 C9.96484375 80.98828125 9.96484375 72.73828125 9.96484375 64.23828125 C8.22879883 64.26446533 6.49275391 64.29064941 4.70410156 64.31762695 C-1.03537024 64.39829124 -6.77482246 64.45572191 -12.5146904 64.49734211 C-15.99449099 64.52342347 -19.47367772 64.55879169 -22.953125 64.61547852 C-26.95448658 64.68025944 -30.95520464 64.70447337 -34.95703125 64.7265625 C-36.82908234 64.76527214 -36.82908234 64.76527214 -38.73895264 64.80476379 C-39.89985413 64.80514145 -41.06075562 64.8055191 -42.25683594 64.8059082 C-43.27831726 64.81701126 -44.29979858 64.82811432 -45.35223389 64.83955383 C-49.02706238 64.01598411 -50.05339113 62.35127241 -52.03515625 59.23828125 C-52.52099609 56.71801758 -52.52099609 56.71801758 -52.49609375 54.0703125 C-52.49222656 53.09384766 -52.48835937 52.11738281 -52.484375 51.11132812 C-52.44763672 49.59635742 -52.44763672 49.59635742 -52.41015625 48.05078125 C-52.40886719 47.06013672 -52.40757812 46.06949219 -52.40625 45.04882812 C-52.25913783 32.58515776 -49.98182881 23.14927909 -41.72265625 13.55078125 C-27.99660962 1.73999694 -17.92184249 0.10264963 0 0 Z " fill="#062658" transform="translate(736.03515625,208.76171875)"/>
<path d="M0 0 C0.87011719 0.50660156 1.74023438 1.01320313 2.63671875 1.53515625 C19.57088036 12.14486658 33.74999284 28.97096035 40 48 C40.37125 49.00289063 40.7425 50.00578125 41.125 51.0390625 C45.67599888 65.03970489 47.49783765 87.01319138 41.625 100.9375 C40.51489654 103.66518279 39.58470984 106.36391363 38.75 109.1875 C35.2398333 119.7361875 29.18750302 128.64344528 22 137 C21.48179687 137.67417969 20.96359375 138.34835937 20.4296875 139.04296875 C12.30214479 149.2738705 0.08832188 156.48123976 -12 161 C-12.73009277 161.27360352 -13.46018555 161.54720703 -14.21240234 161.82910156 C-36.74447996 169.98496887 -61.36315314 169.76394243 -83.28979492 159.82543945 C-104.9880236 149.51444118 -122.07473515 131.68682151 -130.90625 109.25 C-139.12617927 84.8250673 -139.1362022 60.97708947 -127.83984375 37.578125 C-117.16803288 16.49111763 -99.79483559 0.91528553 -77.61328125 -7.24609375 C-74.42795942 -8.27519772 -71.24334858 -9.1735898 -68 -10 C-67.16855469 -10.22558594 -66.33710937 -10.45117188 -65.48046875 -10.68359375 C-43.19832612 -15.77164207 -19.4666507 -11.41301921 0 0 Z M-100 26 C-101.05767578 27.06154297 -101.05767578 27.06154297 -102.13671875 28.14453125 C-114.89736934 41.63436187 -120.17693116 57.05046254 -120.1875 75.25 C-120.19974609 76.34441406 -120.21199219 77.43882812 -120.22460938 78.56640625 C-120.26168618 99.20582682 -111.86002458 116.64719414 -97.68359375 131.34375 C-85.1890549 143.71097913 -69.4698086 150.29780306 -52 151 C-51.3301709 151.02723145 -50.6603418 151.05446289 -49.97021484 151.08251953 C-28.78013032 151.82742854 -10.87789592 146.48561773 5 132 C5.6084375 131.48308594 6.216875 130.96617187 6.84375 130.43359375 C14.81380891 123.20619942 21.56015006 112.16319301 25 102 C25.44472656 100.69869141 25.44472656 100.69869141 25.8984375 99.37109375 C27.99020882 92.01151299 28.28084935 84.92935019 28.3125 77.3125 C28.31797852 76.35069824 28.32345703 75.38889648 28.32910156 74.39794922 C28.13345604 54.7288276 19.90090373 37.74742372 6 24 C-4.66450785 14.08809256 -16.03773301 8.78144731 -30 5 C-30.60803467 4.8242041 -31.21606934 4.6484082 -31.8425293 4.46728516 C-56.88083236 -0.95574439 -82.50121427 7.93368608 -100 26 Z " fill="#3169B5" transform="translate(991,452)"/>
<path d="M0 0 C1.36209177 4.08627532 0.13571138 5.38184262 -1.74609375 9.19921875 C-2.18103905 10.09179131 -2.18103905 10.09179131 -2.62477112 11.00239563 C-3.55313442 12.90211372 -4.49507267 14.79472578 -5.4375 16.6875 C-6.06926502 17.97416509 -6.70013571 19.26126972 -7.33007812 20.54882812 C-8.87637342 23.70438509 -10.43491402 26.85371267 -12 30 C-13.11528076 30.03536865 -14.23056152 30.0707373 -15.37963867 30.10717773 C-27.72481639 30.55549414 -37.4786677 32.63338247 -47 41 C-47.60585938 41.50144531 -48.21171875 42.00289063 -48.8359375 42.51953125 C-55.06986202 48.11372989 -60.64883089 57.25062673 -61.16796875 65.75 C-61.25593972 80.38837021 -58.98825573 90.824081 -49.08203125 102.203125 C-43.4042498 107.58823731 -36.34948279 110.5501724 -29 113 C-27.60264266 112.87449095 -26.20993156 112.69211027 -24.82421875 112.47265625 C-19.26358896 111.91675677 -14.17065913 111.59520199 -9 114 C-1.78135115 121.30015469 4.35436979 132.81773557 6 143 C-0.88190281 146.86057963 -7.55087764 147.17747613 -15.25 147.125 C-15.99725342 147.12016602 -16.74450684 147.11533203 -17.5144043 147.11035156 C-38.78508416 146.88086963 -56.85415781 140.08957951 -72.25 125.0625 C-87.96659303 108.75561239 -94.46084672 89.24499423 -94.43383789 66.83666992 C-94.07381782 48.16492353 -85.70060386 32.51344251 -73 19 C-61.45224651 8.14684823 -49.07618422 2.10859975 -34 -2 C-33.34902344 -2.20367187 -32.69804688 -2.40734375 -32.02734375 -2.6171875 C-22.09323416 -4.49299239 -9.38083409 -3.79923781 0 0 Z " fill="#FDFCFA" transform="translate(778,456)"/>
<path d="M0 0 C4.77085365 3.62999734 4.77085365 3.62999734 5.3671875 7.1953125 C4.85350605 11.11896442 3.0982845 14.24982192 1.25 17.6875 C-0.96588316 21.8689536 -3.05592646 26.01434771 -4.76953125 30.4296875 C-7.81918616 38.24564582 -11.43012848 45.81946675 -14.9375 53.4375 C-15.64801288 54.9849221 -16.35830077 56.53244752 -17.06835938 58.08007812 C-18.10201914 60.33284157 -19.13596675 62.58546874 -20.17123413 64.8374939 C-22.46334192 69.82388456 -24.73781002 74.81796404 -26.99438477 79.82055664 C-27.95525219 81.90301925 -28.9621525 83.95497599 -30 86 C-31.03125 85.525625 -32.0625 85.05125 -33.125 84.5625 C-36.38534162 83.15477612 -39.46051083 82.43164502 -43 82 C-42.44365047 77.70262492 -41.41720102 74.32999081 -39.49609375 70.453125 C-39.00302734 69.44378906 -38.50996094 68.43445313 -38.00195312 67.39453125 C-37.22754883 65.83798828 -37.22754883 65.83798828 -36.4375 64.25 C-35.41197951 62.17354339 -34.3896702 60.09549671 -33.37109375 58.015625 C-32.91661865 57.10071289 -32.46214355 56.18580078 -31.99389648 55.24316406 C-30.86496836 53.10415686 -30.86496836 53.10415686 -31 51 C-49.77893047 45.5132864 -67.42672869 47.20196793 -85 56 C-104.41568451 67.38076602 -117.56430625 83.16387188 -123.3737793 105.04077148 C-124.37431738 109.76885026 -124.48902055 114.36847391 -124.4375 119.1875 C-124.43065186 120.18491211 -124.42380371 121.18232422 -124.41674805 122.20996094 C-124.14116868 135.04556029 -121.05563864 146.6198989 -115 158 C-114.65582031 158.66902344 -114.31164062 159.33804688 -113.95703125 160.02734375 C-104.19022168 177.26911227 -87.37889377 187.94614141 -69 194 C-68.01 194.33 -67.02 194.66 -66 195 C-54.46931967 196.7360318 -39.14811255 198.11182849 -28 194 C-26.68 193.01 -25.36 192.02 -24 191 C-21.69 195.62 -19.38 200.24 -17 205 C-25.34465262 213.34465262 -41.97231968 212.99571927 -53.25 213.4375 C-76.05893727 213.02890998 -99.13562225 202.22788232 -115 186 C-125.47260616 174.37269247 -133.49257797 161.0465151 -138 146 C-138.29777344 145.07832031 -138.59554687 144.15664063 -138.90234375 143.20703125 C-145.38167736 120.12627144 -140.38407271 95.90953328 -129.03515625 75.375 C-118.67069898 57.5985645 -102.59156501 45.30686947 -84 37 C-82.80375 36.46375 -81.6075 35.9275 -80.375 35.375 C-64.21393863 29.69591217 -47.66395377 30.02185819 -31 33 C-28.33605968 33.36674519 -25.67074551 33.68579465 -23 34 C-22.731875 33.33097656 -22.46375 32.66195312 -22.1875 31.97265625 C-18.69546102 23.41486336 -14.83132396 15.05526775 -10.82666016 6.7265625 C-10.16539578 5.34544564 -9.52287985 3.955358 -8.88671875 2.5625 C-6.92606593 -0.89239483 -3.54857521 -0.41747944 0 0 Z " fill="#FB8911" transform="translate(809,406)"/>
<path d="M0 0 C1.46773348 -0.00015532 2.93546735 -0.00164975 4.40319824 -0.00440979 C7.46608816 -0.00578745 10.52850621 0.00665672 13.59130859 0.02954102 C17.49485778 0.05792418 21.39762427 0.05518 25.30123138 0.0424509 C28.32808992 0.03545795 31.35477118 0.04332395 34.38160706 0.05570793 C35.81994443 0.06018742 37.25830108 0.06059027 38.69664001 0.05664253 C50.42989931 0.0395077 59.14763955 0.87168005 67.828125 9.203125 C74.22115838 16.70854618 73.78125 23.51461962 73.78125 33.49609375 C37.81125 33.49609375 1.84125 33.49609375 -35.21875 33.49609375 C-35.21875 21.09637477 -34.50199931 15.52669264 -26.7421875 6.5390625 C-18.58898611 -0.06174915 -10.14329825 -0.08803398 0 0 Z " fill="#FAFBFB" transform="translate(734.21875,224.50390625)"/>
<path d="M0 0 C6.51922317 3.83356312 10.48843769 9.0256352 13.4375 15.9375 C14.73873772 24.83433465 13.80930911 32.56544523 9.34765625 40.40234375 C5.212368 45.89069155 -0.82937175 49.56339219 -7.5625 50.9375 C-16.23386882 51.90602985 -23.98568829 49.95976085 -30.9375 44.5625 C-36.89478586 38.60521414 -39.83484276 32.71684661 -40.0625 24.3125 C-39.92405871 16.05793819 -37.53853647 9.78952753 -31.55859375 3.99609375 C-22.58868941 -3.06749316 -10.54941119 -4.8738921 0 0 Z " fill="#FAFAFB" transform="translate(771.5625,504.0625)"/>
<path d="M0 0 C3.99612771 1.33204257 4.53615378 2.99717789 6.75 6.5625 C7.31775146 7.46778442 7.31775146 7.46778442 7.89697266 8.39135742 C9.27277631 10.58926147 10.63580944 12.79487006 12 15 C13.80934867 17.90282011 15.62152111 20.80386615 17.43383789 23.70483398 C18.73609917 25.78966405 20.03735665 27.87512143 21.33764648 29.96118164 C25.53544833 36.68808411 29.79550396 43.36918351 34.1237793 50.01269531 C38.85047674 57.2784834 43.43022784 64.63483576 48 72 C45.93263231 74.19379518 43.86680811 75.85016522 41.3125 77.4453125 C40.61382813 77.88230469 39.91515625 78.31929687 39.1953125 78.76953125 C38.47085937 79.21683594 37.74640625 79.66414062 37 80.125 C36.27554687 80.58003906 35.55109375 81.03507813 34.8046875 81.50390625 C31.85653555 83.33698228 29.3102484 84.89658387 26 86 C25.69408936 85.4831665 25.38817871 84.96633301 25.07299805 84.43383789 C18.92376993 74.06452882 12.66399203 63.79697351 6.06640625 53.70703125 C1.53881066 46.78058824 -2.8941575 39.79298234 -7.34277344 32.81567383 C-7.98891602 31.80400146 -8.63505859 30.7923291 -9.30078125 29.75 C-9.92033691 28.77546875 -10.53989258 27.8009375 -11.17822266 26.796875 C-12.36709129 24.97167009 -13.58968462 23.16787045 -14.84912109 21.390625 C-15.40809082 20.60171875 -15.96706055 19.8128125 -16.54296875 19 C-17.04207764 18.319375 -17.54118652 17.63875 -18.05541992 16.9375 C-19 15 -19 15 -18.84228516 12.87719727 C-17.39970786 9.66213151 -14.18511779 8.50108154 -11.1875 6.9375 C-6.28222101 4.35073829 -6.28222101 4.35073829 -1.73828125 1.19140625 C-1.16464844 0.79824219 -0.59101562 0.40507813 0 0 Z " fill="#F9FAFB" transform="translate(1041,653)"/>
<path d="M0 0 C2.8125 -0.5 2.8125 -0.5 6 0 C10.77085365 3.62999734 10.77085365 3.62999734 11.3671875 7.1953125 C10.85350605 11.11896442 9.0982845 14.24982192 7.25 17.6875 C5.03411684 21.8689536 2.94407354 26.01434771 1.23046875 30.4296875 C-1.81918616 38.24564582 -5.43012848 45.81946675 -8.9375 53.4375 C-9.64801288 54.9849221 -10.35830077 56.53244752 -11.06835938 58.08007812 C-12.10201914 60.33284157 -13.13596675 62.58546874 -14.17123413 64.8374939 C-16.46334192 69.82388456 -18.73781002 74.81796404 -20.99438477 79.82055664 C-21.95525219 81.90301925 -22.9621525 83.95497599 -24 86 C-25.03125 85.525625 -26.0625 85.05125 -27.125 84.5625 C-30.38534162 83.15477612 -33.46051083 82.43164502 -37 82 C-37 81.34 -37 80.68 -37 80 C-36.08476563 79.77957031 -35.16953125 79.55914062 -34.2265625 79.33203125 C-28.45720111 76.95024888 -26.53461776 71.44359794 -24 66 C-22.45071676 61.71561849 -21.14484924 57.4087362 -20 53 C-18.68 53 -17.36 53 -16 53 C-14.68 47.72 -13.36 42.44 -12 37 C-12.66 37 -13.32 37 -14 37 C-13.75 34.125 -13.75 34.125 -13 31 C-12.35804688 30.69578125 -11.71609375 30.3915625 -11.0546875 30.078125 C-8.8365054 29.17429794 -8.8365054 29.17429794 -8.0234375 26.9765625 C-7.80945313 26.20054687 -7.59546875 25.42453125 -7.375 24.625 C-6.50275023 21.55673314 -5.61946008 18.76404089 -4 16 C-3.34 15.67 -2.68 15.34 -2 15 C-2.02320313 14.16855469 -2.04640625 13.33710938 -2.0703125 12.48046875 C-2.08835937 11.39378906 -2.10640625 10.30710937 -2.125 9.1875 C-2.14820313 8.10855469 -2.17140625 7.02960938 -2.1953125 5.91796875 C-2 3 -2 3 0 0 Z " fill="#F1300D" transform="translate(803,406)"/>
<path d="M0 0 C10.9219664 0.37181162 21.06583613 3.23920198 31.39672852 6.61132812 C38.8289726 8.95724785 45.87268619 10.52863475 53.375 7.75 C55.93335579 6.04442947 57.95076361 4.28568675 60 2 C59.68793825 4.91257629 59.03930601 5.96069399 56.9375 8.0625 C52.1205683 11.23962516 47.68952344 13.43346851 41.8125 12.8125 C38.63183254 12.13465284 35.95780864 11.30491558 33 10 C32.34 10 31.68 10 31 10 C31 9.34 31 8.68 31 8 C30.01 8 29.02 8 28 8 C28 8.99 28 9.98 28 11 C28.99 11.99 28.99 11.99 30 13 C28.35 12.67 26.7 12.34 25 12 C25 11.34 25 10.68 25 10 C18.51656189 7.36903961 12.97669157 6.60674181 6 7 C6.93199219 7.1959375 7.86398437 7.391875 8.82421875 7.59375 C17.38128886 9.60107079 23.63745237 12.12233169 30.90234375 17.1953125 C37.20787856 20.86890277 43.82843698 21.32670275 51 21.625 C51.77472656 21.66367187 52.54945313 21.70234375 53.34765625 21.7421875 C55.23143415 21.83521357 57.11568256 21.91863175 59 22 C59 22.33 59 22.66 59 23 C44.03603256 24.42595786 35.87747218 23.06781389 23 15 C14.5939777 10.09648699 6.01544255 9.81325635 -3.5 9.75 C-4.39734863 9.74073486 -5.29469727 9.73146973 -6.21923828 9.72192383 C-7.06470215 9.72603271 -7.91016602 9.7301416 -8.78125 9.734375 C-9.9269043 9.73775879 -9.9269043 9.73775879 -11.09570312 9.74121094 C-13.24062453 9.83699278 -13.24062453 9.83699278 -15 12 C-8.91467168 13.82645198 -2.76100841 15.23769558 3.4375 16.625 C4.45521484 16.85445313 5.47292969 17.08390625 6.52148438 17.3203125 C9.01392792 17.88198992 11.50676742 18.4418374 14 19 C14 19.33 14 19.66 14 20 C8.67760893 19.56373844 3.52066806 18.90937172 -1.72607422 17.90673828 C-17.62188543 14.98308831 -33.88649429 15.24457396 -50 15 C-50 14.67 -50 14.34 -50 14 C-49.15816162 14.00112793 -48.31632324 14.00225586 -47.44897461 14.00341797 C-44.29671392 13.99343628 -41.14616892 13.95669136 -37.99438477 13.90234375 C-36.63576023 13.88428251 -35.2769535 13.87659726 -33.91821289 13.87988281 C-24.78286995 14.17638703 -24.78286995 14.17638703 -16.99609375 10.15234375 C-16.49118408 9.6119043 -15.98627441 9.07146484 -15.46606445 8.51464844 C-13.10495808 6.07529724 -10.20910235 5.00874939 -7.125 3.6875 C-3.2995818 2.2627709 -3.2995818 2.2627709 0 0 Z " fill="#AF201C" transform="translate(796,299)"/>
<path d="M0 0 C0.99 0.495 0.99 0.495 2 1 C1.13117188 1.82242187 0.26234375 2.64484375 -0.6328125 3.4921875 C-6.54910032 9.18817889 -11.71362963 14.44916247 -15.6875 21.7109375 C-17.08105622 24.14136592 -18.60595922 26.26568654 -20.375 28.4375 C-20.87773438 29.05496094 -21.38046875 29.67242187 -21.8984375 30.30859375 C-27.87209447 35.1163883 -34.52758458 35.49723574 -41.875 35.375 C-42.76050537 35.36412354 -43.64601074 35.35324707 -44.55834961 35.34204102 C-53.46821582 35.12440671 -59.65712186 33.68313775 -67.0625 28.625 C-74.06904552 23.86983726 -81.88940035 22.06330612 -90 20 C-90 19.67 -90 19.34 -90 19 C-81.98573769 18.51182159 -76.05087756 19.01162482 -69 23 C-69 23.66 -69 24.32 -69 25 C-57.299783 27.68059727 -46.95078291 29.65276785 -35 28 C-36 30 -36 30 -39.0625 31.125 C-40.031875 31.41375 -41.00125 31.7025 -42 32 C-42 32.33 -42 32.66 -42 33 C-30.67875904 31.78045509 -30.67875904 31.78045509 -21.609375 25.4296875 C-19.4822768 22.57220016 -17.75204009 19.56730378 -16.0625 16.4375 C-13.93571976 12.60061483 -11.2710839 9.9155313 -8 7 C-7.34 7 -6.68 7 -6 7 C-6 6.34 -6 5.68 -6 5 C-4.04072937 3.2856382 -2.04119788 1.61594832 0 0 Z " fill="#ED3E10" transform="translate(890,286)"/>
<path d="M0 0 C4.46846084 1.4483409 7.59112795 3.94344599 11.0625 7 C15.65880923 11.05075897 15.65880923 11.05075897 21 14 C21 14.66 21 15.32 21 16 C22.98 16.33 24.96 16.66 27 17 C26.67 17.99 26.34 18.98 26 20 C26.62648438 20.20496094 27.25296875 20.40992188 27.8984375 20.62109375 C28.71570313 20.89050781 29.53296875 21.15992188 30.375 21.4375 C31.18710937 21.70433594 31.99921875 21.97117187 32.8359375 22.24609375 C35 23 35 23 37 24 C37 24.66 37 25.32 37 26 C31.43162032 27.85612656 25.85025132 28.48530494 20 28 C16.58412695 26.08485059 15.02362737 23.28839448 13 20 C12.16165917 18.76324314 11.31744637 17.53045493 10.46875 16.30078125 C6.8151258 10.96591289 3.28195205 5.57292507 0 0 Z " fill="#FB6E0F" transform="translate(901,368)"/>
<path d="M0 0 C4.02771628 1.5026138 5.48215259 3.8352731 7.6875 7.4375 C8.28949219 8.40558594 8.89148437 9.37367188 9.51171875 10.37109375 C11 13 11 13 12 16 C6.06 19.465 6.06 19.465 0 23 C-1.50842171 20.73437454 -3.00682251 18.46313837 -4.5 16.1875 C-4.92925781 15.54490234 -5.35851562 14.90230469 -5.80078125 14.24023438 C-9 9.33984375 -9 9.33984375 -9 6 C-7.03125 4.39453125 -7.03125 4.39453125 -4.5 2.8125 C-3.6646875 2.28269531 -2.829375 1.75289062 -1.96875 1.20703125 C-1.3190625 0.80871094 -0.669375 0.41039062 0 0 Z " fill="#F2F4F7" transform="translate(1018,628)"/>
<path d="M0 0 C2.05078125 0.03255208 4.1015625 0.06510417 6.15234375 0.09765625 C4.83234375 0.42765625 3.51234375 0.75765625 2.15234375 1.09765625 C2.13171875 2.12890625 2.11109375 3.16015625 2.08984375 4.22265625 C1.07053899 12.60194096 -4.19083038 21.99693459 -9.84765625 28.09765625 C-12.59765625 28.41015625 -12.59765625 28.41015625 -14.84765625 28.09765625 C-13.1138721 22.20279014 -10.44156801 16.80463133 -7.78515625 11.28515625 C-7.32560547 10.31900391 -6.86605469 9.35285156 -6.39257812 8.35742188 C-2.45509647 0.12976197 -2.45509647 0.12976197 0 0 Z " fill="#F87812" transform="translate(780.84765625,457.90234375)"/>
<path d="M0 0 C0.66 0 1.32 0 2 0 C6.14617787 14.99562028 2.36841251 33.261039 -4 47 C-5.14937198 43.55188406 -4.55181352 42.3920188 -3.30932617 39.11132812 C0.69428322 28.46295742 0.53290503 18.24183651 0 7 C-0.78375 7.825 -1.5675 8.65 -2.375 9.5 C-5 12 -5 12 -7 12 C-7.08121094 12.73347656 -7.16242187 13.46695312 -7.24609375 14.22265625 C-9.3249954 21.88120066 -18.72135174 27.63745148 -25 32 C-25.66 31.67 -26.32 31.34 -27 31 C-26.20335937 30.28714844 -25.40671875 29.57429688 -24.5859375 28.83984375 C-16.17648285 21.26483412 -9.29439158 13.73915631 -3.06958008 4.26611328 C-2.09530075 2.81012707 -1.05281732 1.40024703 0 0 Z " fill="#F8C045" transform="translate(1018,257)"/>
<path d="M0 0 C0.33 0 0.66 0 1 0 C1.80782858 22.50700186 1.80782858 22.50700186 -3 33 C-3.66 33.66 -4.32 34.32 -5 35 C-3.22641509 26.67924528 -3.22641509 26.67924528 -1.875 22.625 C-1.06635012 19.27487906 -0.90988514 16.68964738 -0.9453125 13.2734375 C-0.95715576 11.79109619 -0.95715576 11.79109619 -0.96923828 10.27880859 C-0.97938965 9.52680176 -0.98954102 8.77479492 -1 8 C-1.4532666 8.4940332 -1.9065332 8.98806641 -2.37353516 9.49707031 C-4.45096957 11.75402302 -6.53785579 14.00202507 -8.625 16.25 C-9.33785156 17.02730469 -10.05070313 17.80460937 -10.78515625 18.60546875 C-14.61615641 22.71764324 -18.18106884 26.10720923 -23 29 C-23.804375 29.66 -24.60875 30.32 -25.4375 31 C-33.125 37 -33.125 37 -38 37 C-38 37.66 -38 38.32 -38 39 C-39.32 38.67 -40.64 38.34 -42 38 C-41.04480469 37.45472656 -40.08960938 36.90945312 -39.10546875 36.34765625 C-30.79404 31.5295305 -23.18412125 26.4347841 -16 20 C-15.34515625 19.41605469 -14.6903125 18.83210938 -14.015625 18.23046875 C-9.23023898 13.70976116 -5.62447635 8.47018594 -2 3 C-1.34 2.01 -0.68 1.02 0 0 Z " fill="#F4B337" transform="translate(1011,193)"/>
<path d="M0 0 C-5.445 2.475 -5.445 2.475 -11 5 C-7.7 5.33 -4.4 5.66 -1 6 C-1 6.33 -1 6.66 -1 7 C-2.05960938 7.04898437 -3.11921875 7.09796875 -4.2109375 7.1484375 C-5.59898497 7.22346709 -6.98700451 7.29901485 -8.375 7.375 C-9.42300781 7.42140625 -9.42300781 7.42140625 -10.4921875 7.46875 C-14.70185827 7.59499498 -14.70185827 7.59499498 -18 10 C-11.91467168 11.82645198 -5.76100841 13.23769558 0.4375 14.625 C1.45521484 14.85445313 2.47292969 15.08390625 3.52148438 15.3203125 C6.01392792 15.88198992 8.50676742 16.4418374 11 17 C11 17.33 11 17.66 11 18 C5.67760893 17.56373844 0.52066806 16.90937172 -4.72607422 15.90673828 C-20.62188543 12.98308831 -36.88649429 13.24457396 -53 13 C-53 12.67 -53 12.34 -53 12 C-52.15816162 12.00112793 -51.31632324 12.00225586 -50.44897461 12.00341797 C-47.29671392 11.99343628 -44.14616892 11.95669136 -40.99438477 11.90234375 C-39.63576023 11.88428251 -38.2769535 11.87659726 -36.91821289 11.87988281 C-27.78169717 12.1735944 -27.78169717 12.1735944 -19.984375 8.16015625 C-19.47898193 7.62003906 -18.97358887 7.07992188 -18.45288086 6.5234375 C-16.13746324 4.09557564 -13.33375993 2.93905038 -10.3125 1.5625 C-9.21550781 1.04816406 -8.11851562 0.53382813 -6.98828125 0.00390625 C-4 -1 -4 -1 0 0 Z " fill="#784D5F" transform="translate(799,301)"/>
<path d="M0 0 C0.93619813 3.15506142 1.1057123 5.96586502 1.0625 9.25 C1.05347656 10.14203125 1.04445313 11.0340625 1.03515625 11.953125 C1.02355469 12.62859375 1.01195312 13.3040625 1 14 C0.01 14.33 -0.98 14.66 -2 15 C-2.56058477 16.73433657 -2.56058477 16.73433657 -3 19 C-4.97257948 24.3259646 -7.30202944 27.71813935 -11 32 C-11.33 32.99 -11.66 33.98 -12 35 C-12.66 35 -13.32 35 -14 35 C-12.66736243 27.64777793 -10.18147714 21.42768657 -7 14.6875 C-6.54882812 13.71232422 -6.09765625 12.73714844 -5.6328125 11.73242188 C-3.8059399 7.79491687 -1.95623789 3.87507055 0 0 Z " fill="#F65C17" transform="translate(801,407)"/>
<path d="M0 0 C0.33 0 0.66 0 1 0 C1.03963867 0.55236328 1.07927734 1.10472656 1.12011719 1.67382812 C3.35562545 31.48883881 11.32227057 54.27465787 34 75 C35.65397143 76.34904932 37.31715636 77.68714326 39 79 C33.76095688 78.09391272 30.7582714 74.52514554 27 71 C26.39671875 70.44957031 25.7934375 69.89914062 25.171875 69.33203125 C11.82735724 56.67878356 0.55399325 35.33660598 -0.07641602 16.74658203 C-0.09810506 14.20522424 -0.08737734 11.66631589 -0.0625 9.125 C-0.05798828 8.24585938 -0.05347656 7.36671875 -0.04882812 6.4609375 C-0.03712337 4.30726197 -0.01919069 2.15362183 0 0 Z " fill="#37418E" transform="translate(855,523)"/>
<path d="M0 0 C4.11615493 1.37205164 4.48593602 3.17510846 6.4375 7 C15.79524716 26.07398133 15.62746561 45.64394662 11 66 C10.505 66.99 10.505 66.99 10 68 C9.34 68 8.68 68 8 68 C8.32484375 66.77603516 8.32484375 66.77603516 8.65625 65.52734375 C10.5759186 57.35986484 11.30163933 49.58347332 11.3125 41.1875 C11.31765625 40.23415771 11.3228125 39.28081543 11.328125 38.29858398 C11.24499234 29.73072417 10.07806943 21.77087214 6.625 13.875 C6.19058594 12.87726563 5.75617187 11.87953125 5.30859375 10.8515625 C3.62558815 7.18411746 1.85946776 3.58119717 0 0 Z " fill="#5AA8D8" transform="translate(1007,488)"/>
<path d="M0 0 C8.01426231 -0.48817841 13.94912244 0.01162482 21 4 C21 4.66 21 5.32 21 6 C28.65443386 7.73123042 36.1753241 9.32545897 44 10 C44 10.33 44 10.66 44 11 C39.71 11 35.42 11 31 11 C31.33 11.99 31.66 12.98 32 14 C28.10429438 13.00110112 25.34780339 11.57924712 22.1875 9.1875 C15.60219405 4.56643186 7.6850786 2.99406173 0 1 C0 0.67 0 0.34 0 0 Z " fill="#DE3512" transform="translate(800,305)"/>
<path d="M0 0 C0.66 0.33 1.32 0.66 2 1 C0.69675781 2.23363281 0.69675781 2.23363281 -0.6328125 3.4921875 C-6.54910032 9.18817889 -11.71362963 14.44916247 -15.6875 21.7109375 C-18.78170191 27.10737297 -22.39067674 31.6801378 -28.25 34.0625 C-32 35 -32 35 -35 34 C-34.43410156 33.89042969 -33.86820313 33.78085937 -33.28515625 33.66796875 C-32.55167969 33.50941406 -31.81820312 33.35085938 -31.0625 33.1875 C-30.33160156 33.03667969 -29.60070312 32.88585937 -28.84765625 32.73046875 C-28.23792969 32.48941406 -27.62820313 32.24835938 -27 32 C-26.67 31.01 -26.34 30.02 -26 29 C-25.2575 28.46375 -24.515 27.9275 -23.75 27.375 C-21.12473574 25.10772633 -20.22243088 23.80431442 -18.6875 20.8125 C-15.93922413 15.5435125 -12.34552581 11.05774265 -8 7 C-7.34 7 -6.68 7 -6 7 C-6 6.34 -6 5.68 -6 5 C-4.04072937 3.2856382 -2.04119788 1.61594832 0 0 Z " fill="#EE320B" transform="translate(890,286)"/>
<path d="M0 0 C6.58052266 1.3187553 12.67902098 3.15135475 18.9375 5.5625 C19.83686279 5.90603516 20.73622559 6.24957031 21.6628418 6.60351562 C30.74084861 10.15283548 39.38556137 14.45612028 48 19 C48 19.66 48 20.32 48 21 C43.40723133 19.2195032 38.93057149 17.20218686 34.4375 15.1875 C24.18641251 10.61999996 14.05268517 6.17170041 3.30078125 2.89453125 C1 2 1 2 0 0 Z " fill="#9E313A" transform="translate(815,320)"/>
<path d="M0 0 C-0.80824219 0.36351562 -1.61648438 0.72703125 -2.44921875 1.1015625 C-9.43829784 4.38954905 -14.45906632 6.91813264 -18 14 C-18.2275015 15.87056791 -18.40962811 17.74685958 -18.5625 19.625 C-18.64628906 20.62789063 -18.73007812 21.63078125 -18.81640625 22.6640625 C-18.90728516 23.82035156 -18.90728516 23.82035156 -19 25 C-22.93858451 24.94825283 -26.87495428 24.85320633 -30.8125 24.75 C-31.93205078 24.73582031 -33.05160156 24.72164063 -34.20507812 24.70703125 C-35.81479492 24.65869141 -35.81479492 24.65869141 -37.45703125 24.609375 C-38.44678955 24.58842773 -39.43654785 24.56748047 -40.45629883 24.54589844 C-43 24 -43 24 -44.84643555 21.96191406 C-45.22711182 21.31448242 -45.60778809 20.66705078 -46 20 C-45.21367188 20.31710937 -44.42734375 20.63421875 -43.6171875 20.9609375 C-39.08443243 22.26300321 -34.81721222 22.45540197 -30.125 22.625 C-29.24585938 22.66367187 -28.36671875 22.70234375 -27.4609375 22.7421875 C-25.30761207 22.83581034 -23.15383586 22.91896459 -21 23 C-20.97873047 21.93072266 -20.97873047 21.93072266 -20.95703125 20.83984375 C-20.68743016 15.42596249 -20.38344109 10.86279107 -16.86328125 6.57421875 C-12.44142051 2.83834899 -5.76469098 -1.92156366 0 0 Z " fill="#C42624" transform="translate(982,384)"/>
<path d="M0 0 C4.3177458 0.50797009 8.03302114 1.19682779 12 3 C12 3.99 12 4.98 12 6 C8.73386305 7.91302307 6.00554752 8.35674661 2.25 8.625 C0.77273438 8.73714844 0.77273438 8.73714844 -0.734375 8.8515625 C-1.48203125 8.90054687 -2.2296875 8.94953125 -3 9 C-1.64062915 11.8605891 -0.35479531 13.85927699 2 16 C-1.60648031 16 -2.65229471 15.10012314 -5.5625 13.0625 C-8.68680228 10.8716815 -8.68680228 10.8716815 -12 9 C-12 8.34 -12 7.68 -12 7 C-10.89140625 6.95101563 -9.7828125 6.90203125 -8.640625 6.8515625 C-7.17705935 6.77650785 -5.71351888 6.70096119 -4.25 6.625 C-3.15558594 6.57859375 -3.15558594 6.57859375 -2.0390625 6.53125 C1.73942656 6.3251506 4.77946668 6.08487157 8 4 C5.36 3.01 2.72 2.02 0 1 C0 0.67 0 0.34 0 0 Z " fill="#E83511" transform="translate(935,388)"/>
<path d="M0 0 C4.37633374 1.57848679 8.28162286 3.79195221 12.25 6.1875 C12.91749268 6.5896875 13.58498535 6.991875 14.27270508 7.40625 C18.64383502 10.0788807 22.74968244 12.92227498 26.7265625 16.16015625 C29.6148739 18.49760413 32.58444051 20.71624973 35.5625 22.9375 C37.11130859 24.09572266 37.11130859 24.09572266 38.69140625 25.27734375 C39.45324219 25.84582031 40.21507812 26.41429687 41 27 C40.01 27.495 40.01 27.495 39 28 C35.52150484 26.20297011 32.61224606 23.94783485 29.625 21.4375 C23.08219756 16.12697426 16.05139066 11.59588953 9 7 C7.18572383 5.81521543 5.37287569 4.62823606 3.5625 3.4375 C2.86253906 2.98246094 2.16257812 2.52742188 1.44140625 2.05859375 C0.96574219 1.70925781 0.49007812 1.35992187 0 1 C0 0.67 0 0.34 0 0 Z " fill="#C22A2F" transform="translate(864,341)"/>
<path d="M0 0 C0.33 0 0.66 0 1 0 C0.96334229 0.65258789 0.92668457 1.30517578 0.88891602 1.97753906 C0.15728664 17.0864134 1.18408412 29.25183451 7.47094727 43.10668945 C8.11409295 45.40830217 7.75068554 46.76286383 7 49 C6.22241722 47.21125226 5.45336505 45.41879603 4.6875 43.625 C4.25824219 42.62726563 3.82898438 41.62953125 3.38671875 40.6015625 C0.02209568 31.86302034 -1.4448007 24.52413369 -1.25 15.125 C-1.24484375 14.10664063 -1.2396875 13.08828125 -1.234375 12.0390625 C-1.14943806 3.9700531 -1.14943806 3.9700531 0 0 Z " fill="#F53C0E" transform="translate(927,320)"/>
<path d="M0 0 C4.86111321 7.29166981 4.27849601 15.5517393 4.1875 24 C4.18685547 25.13695312 4.18621094 26.27390625 4.18554688 27.4453125 C4.15453477 33.38585343 3.8997086 39.12670224 3 45 C2.67 45 2.34 45 2 45 C1.80252781 43.60554251 1.61751413 42.20931848 1.4375 40.8125 C1.33308594 40.03519531 1.22867187 39.25789062 1.12109375 38.45703125 C0.98927321 35.7823499 1.44445033 33.61269375 2 31 C2.52317513 22.9455364 1.62877006 15.19180042 0.4375 7.25 C0 4 0 4 0 0 Z " fill="#57AFDC" transform="translate(1031,504)"/>
<path d="M0 0 C0.66 0.33 1.32 0.66 2 1 C-1.5816025 5.20838293 -5.22290398 9.27197798 -9.1875 13.125 C-11.57018191 15.45698655 -13.59447228 17.68027953 -15.375 20.5 C-16.179375 21.7375 -16.179375 21.7375 -17 23 C-17.66 23 -18.32 23 -19 23 C-17.62524732 18.92639074 -15.78900166 16.32995127 -12.875 13.1875 C-12.07964844 12.32769531 -11.28429687 11.46789062 -10.46484375 10.58203125 C-7.03745065 6.9916876 -3.55305845 3.46592623 0 0 Z " fill="#EE6D27" transform="translate(701,457)"/>
<path d="M0 0 C4.75 0.875 4.75 0.875 7 2 C7 2.66 7 3.32 7 4 C7.928125 4.103125 8.85625 4.20625 9.8125 4.3125 C13.03254358 5.0070192 14.02579865 5.47740939 16 8 C11.56923077 10.09230769 11.56923077 10.09230769 8.6875 9.625 C8.130625 9.41875 7.57375 9.2125 7 9 C7.99 9 8.98 9 10 9 C10 8.34 10 7.68 10 7 C9.37351562 6.79503906 8.74703125 6.59007812 8.1015625 6.37890625 C7.28429687 6.10949219 6.46703125 5.84007812 5.625 5.5625 C4.81289063 5.29566406 4.00078125 5.02882813 3.1640625 4.75390625 C1 4 1 4 -1 3 C-0.67 2.01 -0.34 1.02 0 0 Z " fill="#F7500F" transform="translate(928,385)"/>
<path d="M0 0 C0.66 0 1.32 0 2 0 C0.47313925 3.68292235 -1.73868598 5.85043714 -4.625 8.5625 C-9.16259559 12.98172353 -12.83381445 17.62809366 -16.40625 22.84765625 C-18 25 -18 25 -20 26 C-19.67 24.68 -19.34 23.36 -19 22 C-18.34 22 -17.68 22 -17 22 C-16.814375 21.34 -16.62875 20.68 -16.4375 20 C-14.69617525 16.36593095 -12.36715439 13.81931643 -9.65625 10.8671875 C-7.83198095 8.89656809 -7.83198095 8.89656809 -6 6 C-5.34 6 -4.68 6 -4 6 C-3.566875 5.071875 -3.566875 5.071875 -3.125 4.125 C-2 2 -2 2 0 0 Z " fill="#FB8317" transform="translate(961,267)"/>
<path d="M0 0 C0.33 0 0.66 0 1 0 C1.03963867 0.55236328 1.07927734 1.10472656 1.12011719 1.67382812 C1.90061054 12.08328085 2.87103822 22.14043211 5.76660156 32.19921875 C7.08731114 36.82537772 7.08731114 36.82537772 6 39 C0.21374964 25.79836082 -0.26293337 14.22761659 0 0 Z " fill="#2D3986" transform="translate(855,523)"/>
<path d="M0 0 C0.33 0 0.66 0 1 0 C1.8862837 26.22743259 1.8862837 26.22743259 -3 36 C-3.66 36 -4.32 36 -5 36 C-4.82609741 35.16359985 -4.82609741 35.16359985 -4.64868164 34.31030273 C-2.29435097 22.85632518 -0.35957408 11.7041364 0 0 Z " fill="#4291CE" transform="translate(1020,520)"/>
<path d="M0 0 C0.33 0.66 0.66 1.32 1 2 C-0.06012706 3.23121385 -1.12324005 4.45985685 -2.1875 5.6875 C-3.14076172 6.78771484 -3.14076172 6.78771484 -4.11328125 7.91015625 C-6 10 -6 10 -8.875 12.625 C-11.38585492 15.43124961 -11.74152383 17.29517494 -12 21 C-12.66 21 -13.32 21 -14 21 C-14.49397363 17.57305793 -14.72263049 15.04066318 -12.6875 12.10986328 C-10.86002322 10.1717385 -8.96800807 8.3576425 -7 6.5625 C-6.33226562 5.92634766 -5.66453125 5.29019531 -4.9765625 4.63476562 C-3.33240682 3.07281773 -1.67425288 1.52953687 0 0 Z " fill="#223B63" transform="translate(609,352)"/>
<path d="M0 0 C16.335 1.485 16.335 1.485 33 3 C33 3.33 33 3.66 33 4 C29.52236975 4.25832274 26.04327902 4.47620671 22.5625 4.6875 C21.10166992 4.79674805 21.10166992 4.79674805 19.61132812 4.90820312 C13.22253544 5.27144552 7.81581019 4.85418216 2 2 C1.34 1.34 0.68 0.68 0 0 Z " fill="#566BA9" transform="translate(920,600)"/>
<path d="M0 0 C8.01426231 -0.48817841 13.94912244 0.01162482 21 4 C18.82389132 5.31846585 17.55511338 6.06390665 14.98535156 5.76806641 C14.2940918 5.54812012 13.60283203 5.32817383 12.890625 5.1015625 C12.13652344 4.86953125 11.38242187 4.6375 10.60546875 4.3984375 C9.82816406 4.14320313 9.05085937 3.88796875 8.25 3.625 C7.45722656 3.3775 6.66445313 3.13 5.84765625 2.875 C3.89428533 2.26310068 1.94654899 1.63326594 0 1 C0 0.67 0 0.34 0 0 Z " fill="#D62B11" transform="translate(800,305)"/>
<path d="M0 0 C1.37671875 0.26200195 1.37671875 0.26200195 2.78125 0.52929688 C3.72742188 0.71943359 4.67359375 0.90957031 5.6484375 1.10546875 C7.07929687 1.37327148 7.07929687 1.37327148 8.5390625 1.64648438 C15.62796323 3.02931924 15.62796323 3.02931924 19.0234375 5.29296875 C9.27519563 4.49393253 -0.3299205 2.86772858 -9.9765625 1.29296875 C-9.9765625 0.96296875 -9.9765625 0.63296875 -9.9765625 0.29296875 C-6.35398469 -0.60762526 -3.65863644 -0.70184501 0 0 Z " fill="#8C353F" transform="translate(790.9765625,313.70703125)"/>
<path d="M0 0 C0.33 0.99 0.66 1.98 1 3 C-3.71570211 7.36202445 -8.58144417 11.08294217 -15.2890625 10.95703125 C-17.205068 10.72345461 -19.10600291 10.37203514 -21 10 C-21 9.01 -21 8.02 -21 7 C-20.20335937 7.03480469 -19.40671875 7.06960938 -18.5859375 7.10546875 C-10.33729554 7.41375384 -10.33729554 7.41375384 -3 4 C-1.14684743 1.95053601 -1.14684743 1.95053601 0 0 Z " fill="#C9332D" transform="translate(855,301)"/>
<path d="M0 0 C0.33 0.99 0.66 1.98 1 3 C0.14453125 4.65625 0.14453125 4.65625 -1.1875 6.5 C-4.41784814 11.33649889 -6.19131703 16.50322047 -8 22 C-8.66 22 -9.32 22 -10 22 C-9.44714257 17.06215004 -7.83099164 13.11141773 -5.5625 8.75 C-5.24990234 8.12609375 -4.93730469 7.5021875 -4.61523438 6.859375 C-3.27495912 4.22982862 -2.09964965 2.09964965 0 0 Z " fill="#F96915" transform="translate(940,293)"/>
<path d="M0 0 C-3.38009222 7.51496232 -10.4428858 12.35040993 -17 17 C-17.66 16.67 -18.32 16.34 -19 16 C-18.19175781 15.26394531 -17.38351562 14.52789062 -16.55078125 13.76953125 C-15.47129779 12.78391591 -14.39187388 11.79823535 -13.3125 10.8125 C-12.51682617 10.08836914 -12.51682617 10.08836914 -11.70507812 9.34960938 C-9.13591151 7.00110738 -6.652969 4.64122183 -4.23046875 2.13671875 C-2 0 -2 0 0 0 Z " fill="#F6AB2C" transform="translate(1010,272)"/>
<path d="M0 0 C0.66 0.33 1.32 0.66 2 1 C1.59160889 1.4031543 1.18321777 1.80630859 0.76245117 2.22167969 C-1.09852721 4.06178383 -2.95553724 5.90584388 -4.8125 7.75 C-5.45509766 8.38421875 -6.09769531 9.0184375 -6.75976562 9.671875 C-7.38173828 10.290625 -8.00371094 10.909375 -8.64453125 11.546875 C-9.21534424 12.11245117 -9.78615723 12.67802734 -10.37426758 13.26074219 C-12.07347736 15.07860831 -13.54275828 16.98495317 -15 19 C-15.66 18.67 -16.32 18.34 -17 18 C-11.80277951 11.34707654 -6.61170916 5.27855799 0 0 Z " fill="#FCEDD9" transform="translate(713,468)"/>
<path d="M0 0 C1.54592821 3.09185642 0.62583428 5.69044457 0.125 9.0625 C-0.05804687 10.33222656 -0.24109375 11.60195313 -0.4296875 12.91015625 C-1 16 -1 16 -2 17 C-2.23427778 19.01594582 -2.41336124 21.038474 -2.5625 23.0625 C-2.64628906 24.16722656 -2.73007812 25.27195312 -2.81640625 26.41015625 C-2.87699219 27.26480469 -2.93757812 28.11945312 -3 29 C-3.33 29 -3.66 29 -4 29 C-4.40441446 19.1442699 -3.6919243 10.52634351 -1 1 C-0.67 0.67 -0.34 0.34 0 0 Z " fill="#5361A0" transform="translate(858,506)"/>
<path d="M0 0 C4.98012761 1.50912958 8.24259942 4.55661849 12 8 C11.01 8.495 11.01 8.495 10 9 C9.34 8.67 8.68 8.34 8 8 C8.33 9.32 8.66 10.64 9 12 C5.0963126 8.53005564 2.63411025 4.44775994 0 0 Z " fill="#F67725" transform="translate(901,368)"/>
<path d="M0 0 C0.66 0 1.32 0 2 0 C0.62609485 5.19030834 -2.54388625 8.23787706 -7 11 C-9.97056458 11.99490337 -12.89725895 12.59192975 -16 13 C-13.4345406 10.4345406 -11.52313332 10.45953913 -8 10 C-7.67 9.01 -7.34 8.02 -7 7 C-5.34997172 5.64613064 -3.6825613 4.31321858 -2 3 C-1.34 2.01 -0.68 1.02 0 0 Z " fill="#E22811" transform="translate(871,308)"/>
<path d="M0 0 C0.74958984 0.00451172 1.49917969 0.00902344 2.27148438 0.01367188 C4.11852383 0.02543646 5.96552213 0.04337135 7.8125 0.0625 C7.8125 0.7225 7.8125 1.3825 7.8125 2.0625 C-1.5925 2.5575 -1.5925 2.5575 -11.1875 3.0625 C-11.1875 2.4025 -11.1875 1.7425 -11.1875 1.0625 C-7.42449626 -0.19183458 -3.91539091 -0.04445422 0 0 Z " fill="#334568" transform="translate(758.1875,485.9375)"/>
<path d="M0 0 C0 0.66 0 1.32 0 2 C-6.34944367 7.86102493 -13.89448019 7.2360831 -22 7 C-22 6.67 -22 6.34 -22 6 C-20.741875 5.938125 -19.48375 5.87625 -18.1875 5.8125 C-13.02477928 5.27164354 -8.89967157 3.34962597 -4.28515625 1.05859375 C-2 0 -2 0 0 0 Z " fill="#EE8235" transform="translate(1001,350)"/>
<path d="M0 0 C2.64 0 5.28 0 8 0 C6.68 0.33 5.36 0.66 4 1 C3.87625 2.27875 3.7525 3.5575 3.625 4.875 C3.25 8.75 3.25 8.75 1 11 C-0.17571451 7.32589215 -0.07366746 3.83070817 0 0 Z " fill="#F65909" transform="translate(779,458)"/>
<path d="M0 0 C0 0.66 0 1.32 0 2 C-4.13538984 5.82167061 -8.53669146 6.17569599 -14 6 C-16.62168676 5.27149589 -18.58869889 4.31048973 -21 3 C-20.67 2.34 -20.34 1.68 -20 1 C-18.515 1.99 -18.515 1.99 -17 3 C-10.29719665 3.98307782 -5.93124102 0 0 0 Z " fill="#F29E2E" transform="translate(991,289)"/>
<path d="M0 0 C4.67155643 0.49263686 7.09115745 2.36685304 10.625 5.375 C11.56601562 6.16648437 12.50703125 6.95796875 13.4765625 7.7734375 C15.3927258 9.46416982 17.23065104 11.15940209 19 13 C12.90255856 11.62807568 9.44875207 8.10162151 5 4 C3.34348188 2.65407903 1.68193932 1.3140151 0 0 Z " fill="#D6342B" transform="translate(886,356)"/>
<path d="M0 0 C0.33 0 0.66 0 1 0 C1.02724423 2.83339965 1.04695589 5.66653117 1.0625 8.5 C1.07087891 9.29148437 1.07925781 10.08296875 1.08789062 10.8984375 C1.10891185 16.02761717 0.73937287 20.92336106 0 26 C-0.33 26 -0.66 26 -1 26 C-2.60693281 17.16186956 -1.22331878 8.80587322 0 0 Z " fill="#59A6D4" transform="translate(1034,523)"/>
<path d="M0 0 C0.66 0 1.32 0 2 0 C1.67 1.98 1.34 3.96 1 6 C-3.66666667 4.66666667 -8.33333333 3.33333333 -13 2 C-13 1.67 -13 1.34 -13 1 C-8.07872966 0.83317728 -4.49656104 0.75171948 0 3 C0 2.01 0 1.02 0 0 Z " fill="#A0231F" transform="translate(779,486)"/>
<path d="M0 0 C0.66 0.33 1.32 0.66 2 1 C-1.96 4.96 -5.92 8.92 -10 13 C-10 8.41771462 -7.08388033 6.1816619 -4 3 C-1.625 1.0625 -1.625 1.0625 0 0 Z " fill="#FCE9CA" transform="translate(988,331)"/>
<path d="M0 0 C1.76923828 0.01353516 1.76923828 0.01353516 3.57421875 0.02734375 C4.47785156 0.03894531 5.38148438 0.05054688 6.3125 0.0625 C6.3125 0.3925 6.3125 0.7225 6.3125 1.0625 C4.6625 1.3925 3.0125 1.7225 1.3125 2.0625 C1.3125 2.3925 1.3125 2.7225 1.3125 3.0625 C0.054375 3.10375 -1.20375 3.145 -2.5 3.1875 C-3.20769531 3.21070313 -3.91539062 3.23390625 -4.64453125 3.2578125 C-6.6875 3.0625 -6.6875 3.0625 -9.6875 1.0625 C-6.26517028 -0.07827657 -3.60076783 -0.03565117 0 0 Z " fill="#C32418" transform="translate(800.6875,303.9375)"/>
<path d="M0 0 C0.99 0.33 1.98 0.66 3 1 C2.31164062 1.67095703 2.31164062 1.67095703 1.609375 2.35546875 C-1.83552299 5.74970648 -5.07255085 9.13576712 -8 13 C-7.38768269 9.59398498 -6.1179601 7.52613637 -4 4.8125 C-3.195625 3.77029297 -3.195625 3.77029297 -2.375 2.70703125 C-1 1 -1 1 0 0 Z " fill="#EC320E" transform="translate(966,375)"/>
<path d="M0 0 C0.66 0 1.32 0 2 0 C0.58192622 4.47238653 -1.11304374 8.71146306 -3 13 C-3.66 12.67 -4.32 12.34 -5 12 C-3.68938409 7.76570244 -2.05643741 3.92592596 0 0 Z " fill="#ED7032" transform="translate(679,483)"/>
<path d="M0 0 C4.75 0.75 4.75 0.75 7 3 C6.67 3.66 6.34 4.32 6 5 C1.25 4.125 1.25 4.125 -1 3 C-0.67 2.01 -0.34 1.02 0 0 Z " fill="#F3420D" transform="translate(928,385)"/>
<path d="M0 0 C3.37503669 1.1858237 5.64722731 2.27573689 8 5 C5.36 5.33 2.72 5.66 0 6 C0 4.02 0 2.04 0 0 Z " fill="#314564" transform="translate(849,379)"/>
<path d="M0 0 C0.33 0 0.66 0 1 0 C1.29296875 6.0546875 1.29296875 6.0546875 1 8 C0.01 8.66 -0.98 9.32 -2 10 C-2.6875 8.375 -2.6875 8.375 -3 6 C-1.5625 2.75 -1.5625 2.75 0 0 Z " fill="#F4812B" transform="translate(778,459)"/>
<path d="M0 0 C4.20390632 1.50139512 5.89110738 4.17275043 8 8 C7.67 8.99 7.34 9.98 7 11 C5.83051998 9.35616456 4.6644855 7.70987731 3.5 6.0625 C2.8503125 5.14597656 2.200625 4.22945313 1.53125 3.28515625 C0 1 0 1 0 0 Z " fill="#FB7010" transform="translate(949,388)"/>
<path d="M0 0 C0.99 0.33 1.98 0.66 3 1 C2.34 1.66 1.68 2.32 1 3 C0.60235737 4.98821313 0.26224651 6.98944339 0 9 C-0.66 9 -1.32 9 -2 9 C-2.125 5.625 -2.125 5.625 -2 2 C-1.34 1.34 -0.68 0.68 0 0 Z " fill="#1C335D" transform="translate(597,364)"/>
<path d="M0 0 C0.66 0 1.32 0 2 0 C1.37240135 2.92879371 0.41377341 5.36095629 -1 8 C-1.66 8 -2.32 8 -3 8 C-2.25 2.25 -2.25 2.25 0 0 Z " fill="#F93C07" transform="translate(792,435)"/>
<path d="M0 0 C1.32 0 2.64 0 4 0 C6.125 2.375 6.125 2.375 8 5 C8.66 5.66 9.32 6.32 10 7 C6.65580848 7 5.93159679 6.52480606 3.3125 4.625 C2.68988281 4.18414062 2.06726563 3.74328125 1.42578125 3.2890625 C0.95527344 2.86367188 0.48476563 2.43828125 0 2 C0 1.34 0 0.68 0 0 Z " fill="#D8342D" transform="translate(927,397)"/>
<path d="M0 0 C-3.20380017 2.13586678 -4.01939967 2.23132175 -7.6875 2.125 C-8.89986328 2.09792969 -8.89986328 2.09792969 -10.13671875 2.0703125 C-11.05904297 2.03550781 -11.05904297 2.03550781 -12 2 C-11.67 1.34 -11.34 0.68 -11 0 C-7.08234111 -0.81309902 -3.82092412 -1.37553268 0 0 Z " fill="#A11612" transform="translate(808,302)"/>
<path d="M0 0 C0 3 0 3 -1.3125 4.38671875 C-2.875 5.59114583 -4.4375 6.79557292 -6 8 C-6.66 7.34 -7.32 6.68 -8 6 C-5.36 4.02 -2.72 2.04 0 0 Z " fill="#13305D" transform="translate(702,216)"/>
<path d="M0 0 C0.99 0.33 1.98 0.66 3 1 C0.69 3.31 -1.62 5.62 -4 8 C-4.66 7.67 -5.32 7.34 -6 7 C-4.02 4.69 -2.04 2.38 0 0 Z " fill="#F7B027" transform="translate(997,211)"/>
<path d="M0 0 C0.66 0.33 1.32 0.66 2 1 C2 1.66 2 2.32 2 3 C3.32 3.66 4.64 4.32 6 5 C2.7 5 -0.6 5 -4 5 C-2.68 3.35 -1.36 1.7 0 0 Z " fill="#6F1520" transform="translate(780,309)"/>
<path d="M0 0 C0 0.66 0 1.32 0 2 C-1.64453125 3.2890625 -1.64453125 3.2890625 -3.8125 4.625 C-4.52019531 5.07101562 -5.22789062 5.51703125 -5.95703125 5.9765625 C-8 7 -8 7 -11 7 C-9.87720538 6.01830524 -8.75168527 5.03972702 -7.625 4.0625 C-6.68527344 3.24458984 -6.68527344 3.24458984 -5.7265625 2.41015625 C-3.71547429 0.76761588 -2.62199195 0 0 0 Z " fill="#511D2E" transform="translate(786,305)"/>
<path d="M0 0 C-5.75 3.875 -5.75 3.875 -8 5 C-10.125 4.0625 -10.125 4.0625 -12 3 C-10.3789897 2.30314502 -8.75303934 1.61777139 -7.125 0.9375 C-6.22007812 0.55464844 -5.31515625 0.17179688 -4.3828125 -0.22265625 C-2 -1 -2 -1 0 0 Z " fill="#F39B4E" transform="translate(941,245)"/>
<path d="M0 0 C0.33 0.66 0.66 1.32 1 2 C-0.6396875 2.2165625 -0.6396875 2.2165625 -2.3125 2.4375 C-5.93122987 2.88288104 -5.93122987 2.88288104 -9 4 C-8.67 3.01 -8.34 2.02 -8 1 C-5.29120665 -0.35439668 -2.99066732 -0.06501451 0 0 Z " fill="#223A64" transform="translate(603,674)"/>
<path d="M0 0 C3.98671063 1.36687222 6.88494633 3.15195093 10 6 C10 6.66 10 7.32 10 8 C6.05205855 6.32971708 3.18203882 3.8204435 0 1 C0 0.67 0 0.34 0 0 Z " fill="#E5290E" transform="translate(905,369)"/>
<path d="M0 0 C0.33 0 0.66 0 1 0 C1.33 3.63 1.66 7.26 2 11 C1.01 10.34 0.02 9.68 -1 9 C-1.4375 2.875 -1.4375 2.875 0 0 Z " fill="#FCDDB6" transform="translate(976,344)"/>
<path d="M0 0 C0.66 0 1.32 0 2 0 C0.4169423 4.2742558 -2.50568404 6.26531794 -6 9 C-4.79618552 6.50638429 -3.54571278 4.31856917 -2 2 C-1.34 2 -0.68 2 0 2 C0 1.34 0 0.68 0 0 Z " fill="#F1A525" transform="translate(986,254)"/>
<path d="M0 0 C1.0326802 2.78823655 1.04509293 3.8677274 0.0625 6.75 C-0.288125 7.4925 -0.63875 8.235 -1 9 C-1.66 8.67 -2.32 8.34 -3 8 C-1.125 1.125 -1.125 1.125 0 0 Z " fill="#F6782D" transform="translate(801,407)"/>
<path d="M0 0 C0.66 0.33 1.32 0.66 2 1 C2 3.31 2 5.62 2 8 C0.4375 6.8125 0.4375 6.8125 -1 5 C-0.6875 2.3125 -0.6875 2.3125 0 0 Z " fill="#F66006" transform="translate(954,387)"/>
<path d="M0 0 C0.66 0.33 1.32 0.66 2 1 C0.02 3.97 -1.96 6.94 -4 10 C-4.33 9.01 -4.66 8.02 -5 7 C-2 2 -2 2 0 0 Z " fill="#EF801D" transform="translate(980,336)"/>
<path d="M0 0 C-2.97 1.32 -5.94 2.64 -9 4 C-9.33 3.34 -9.66 2.68 -10 2 C-4.5 -1.125 -4.5 -1.125 0 0 Z " fill="#E66036" transform="translate(999,377)"/>
<path d="M0 0 C2.4375 0.375 2.4375 0.375 5 1 C5.33 1.66 5.66 2.32 6 3 C4.68 2.67 3.36 2.34 2 2 C2.33 3.32 2.66 4.64 3 6 C1.5 4.6875 1.5 4.6875 0 3 C0 2.01 0 1.02 0 0 Z " fill="#F87F1B" transform="translate(907,374)"/>
</svg>
